<?xml version="1.0"?>
<svg width="500" height="500" xmlns="http://www.w3.org/2000/svg" xmlns:svg="http://www.w3.org/2000/svg" version="1.1">
 <g class="layer">
  <title>Layer 1</title>
  <path d="m0,0c0.87,0.6 1.74,1.2 2.64,1.82c2.82,1.71 5.51,2.69 8.67,3.62c-1.32,0.33 -2.64,0.66 -4,1c0.44,0.75 0.88,1.51 1.33,2.29c16.95,29.42 16.95,29.42 23.26,43.58c4.64,10.27 9.95,20.23 15.28,30.15c2.41,4.48 4.77,8.98 7.13,13.48c3.16,6 6.32,12.01 9.5,18c0.33,0.61 0.65,1.23 0.99,1.87c1.41,2.64 2.85,5.14 4.51,7.63c0.66,-3.96 1.32,-7.92 2,-12c0.33,0 0.66,0 1,0c0.14,7.36 0.14,7.36 -0.4,9.9c-1.34,7.17 0.99,11.79 4.28,18.1c0.75,1.51 0.75,1.51 1.52,3.04c2.69,5.38 5.52,10.69 8.4,15.98c6.73,12.4 11.87,24.72 8.47,39.06c-1.77,5.41 -3.68,9.34 -8.27,12.92c-0.78,0.62 -1.56,1.24 -2.37,1.87c-3.79,1.63 -5.68,1.33 -9.63,0.13c-7.09,-4.69 -10.75,-11.07 -14.62,-18.44c-1.22,-2.25 -2.45,-4.51 -3.67,-6.76c-0.62,-1.14 -1.24,-2.27 -1.87,-3.45c-2.8,-5.11 -5.75,-10.14 -8.71,-15.16c-5.54,-9.45 -11,-18.94 -16.41,-28.45c-4.27,-7.49 -8.58,-14.95 -12.99,-22.35c-4.36,-7.39 -8.5,-14.89 -12.64,-22.4c-3.32,-5.97 -6.79,-11.78 -10.53,-17.49c-2.07,-3.33 -3.73,-6.81 -5.42,-10.34c-1.4,-2.67 -3.2,-4.87 -5.14,-7.16c0,-0.66 0,-1.32 0,-2c-2.83,-0.47 -2.83,-0.47 -6,0c-2.25,2.33 -2.25,2.33 -3.99,5.56c-0.34,0.58 -0.69,1.16 -1.04,1.75c-1.12,1.89 -2.2,3.79 -3.28,5.69c-0.76,1.29 -1.52,2.59 -2.28,3.88c-2.17,3.69 -4.29,7.4 -6.41,11.12c-0.51,0.89 -1.02,1.78 -1.55,2.7c-1.88,3.3 -3.75,6.61 -5.58,9.94c-1.28,2.31 -2.59,4.58 -3.96,6.84c-0.65,1.08 -1.3,2.16 -1.97,3.27c-0.57,0.92 -1.14,1.84 -1.72,2.79c-1.51,2.6 -1.51,2.6 -1.22,6.46c12.33,5.9 24.68,8.62 38.22,9.77c1.09,0.09 1.09,0.09 2.21,0.19c3.68,0.31 7.36,0.58 11.05,0.82c8.85,0.63 15.94,1.44 22.46,7.97c2.98,3.8 5.43,7.96 7.88,12.12c0.39,0.66 0.79,1.32 1.2,2c2.76,4.88 4.11,9.48 3.98,15.13c-1.57,3.81 -3.57,5.78 -7,8c-2.55,0.64 -5.06,1 -7.66,1.37c-2.38,0.41 -2.38,0.41 -3.63,2.06c-2.77,2.55 -6.31,2.92 -9.89,3.69c-0.74,0.17 -1.47,0.34 -2.22,0.51c-17.6,3.96 -34.05,2.33 -50.71,-4.37c-4.49,-1.79 -8.88,-3.11 -13.58,-4.26c-6.27,-1.57 -11.76,-3.88 -17.5,-6.83c-2.87,-1.2 -4.74,-1.42 -7.81,-1.17c-0.39,1.14 -0.78,2.29 -1.18,3.47c-1.76,4.69 -4.2,8.75 -6.88,12.97c-0.98,1.57 -1.97,3.14 -2.95,4.72c-0.5,0.79 -0.99,1.59 -1.5,2.41c-1.47,2.39 -2.87,4.8 -4.26,7.24c-0.44,0.76 -0.87,1.53 -1.33,2.32c-0.83,1.46 -1.65,2.92 -2.46,4.38c-2.63,4.59 -5.25,8.36 -10.46,10.2c-4.87,0.57 -7.93,0.37 -11.98,-2.71c-6.78,-8.92 -9.1,-17.92 -8,-29c2.19,-11.83 7.67,-22.34 13,-33c0.36,-0.73 0.73,-1.45 1.1,-2.2c1.35,-2.72 2.71,-5.43 4.08,-8.14c7.42,-13.72 7.42,-13.72 9.6,-28.8c-0.33,-8.51 0.34,-14.68 5.04,-22.01c1.48,-2.32 2.91,-4.68 4.33,-7.04c4.49,-7.36 9.02,-14.68 13.85,-21.81c1.21,3.62 0.55,4.64 -1,8c0.33,0.33 0.66,0.66 1,1c2.12,-2.62 4.13,-5.2 6,-8c0.99,-1.49 0.99,-1.49 2,-3c0.31,-0.66 0.62,-1.32 0.94,-2c1.12,-2.11 2.35,-3.36 4.06,-5c0.66,-0.99 1.32,-1.98 2,-3c0.66,-0.99 1.32,-1.98 2,-3c0.31,-0.66 0.62,-1.32 0.94,-2c1.12,-2.11 2.35,-3.36 4.06,-5c0.66,-0.99 1.32,-1.98 2,-3c0.66,-0.99 1.32,-1.98 2,-3c0.29,-0.6 0.58,-1.2 0.88,-1.81c3.89,-7.58 3.89,-7.58 7.12,-9.19c0.33,-0.66 0.66,-1.32 1,-2c0.99,-1.49 0.99,-1.49 2,-3c0.69,-1.33 1.35,-2.66 2,-4c0.33,-0.66 0.66,-1.32 1,-2c-0.99,-0.33 -1.98,-0.66 -3,-1c0.79,-0.29 1.57,-0.59 2.38,-0.89c7.18,-2.74 7.18,-2.74 13.31,-7.24c10.76,-10.08 25.86,-6.54 37,0.69zm-93.69,68.44c1,2 1,2 1,2l-1,-2zm-7,15c1,2 1,2 1,2l-1,-2z" fill="#13093C" id="svg_1" transform="translate(268.6875,156.5625)"/>
  <path d="m0,0c1.51,0.02 1.51,0.02 3.06,0.04c1.01,0 2.02,0.01 3.07,0.02c1.17,0.02 1.17,0.02 2.37,0.04c-0.33,0.99 -0.66,1.98 -1,3c1.98,0 3.96,0 6,0c0,0.66 0,1.32 0,2c1.32,0 2.64,0 4,0c1.02,0.97 2.01,1.98 3,3c1.64,0.82 1.64,0.82 3.32,1.65c4.23,2.38 5.96,5.36 8.11,9.6c0.38,0.7 0.75,1.4 1.14,2.12c1.17,2.2 2.3,4.41 3.43,6.63c0.35,0.7 0.71,1.4 1.08,2.11c2.04,4.01 4.05,8.04 6.03,12.08c1.28,2.61 2.58,5.21 3.89,7.81c1.6,3.2 3.2,6.41 4.79,9.63c4.82,9.72 9.84,19.34 14.92,28.93c1.72,3.25 3.43,6.51 5.14,9.78c3.54,6.72 7.08,13.45 10.65,20.16c0.32,0.61 0.65,1.23 0.98,1.87c1.41,2.64 2.86,5.14 4.52,7.63c0.66,-3.96 1.32,-7.92 2,-12c0.33,0 0.66,0 1,0c0.13,7.36 0.13,7.36 -0.4,9.9c-1.34,7.17 0.98,11.79 4.27,18.1c0.75,1.51 0.75,1.51 1.52,3.04c2.7,5.38 5.52,10.69 8.4,15.98c6.73,12.4 11.87,24.72 8.48,39.06c-1.78,5.41 -3.69,9.34 -8.27,12.92c-0.79,0.62 -1.57,1.24 -2.38,1.87c-3.79,1.63 -5.68,1.33 -9.62,0.13c-7.1,-4.69 -10.76,-11.07 -14.63,-18.44c-1.22,-2.25 -2.44,-4.51 -3.67,-6.76c-0.62,-1.14 -1.23,-2.27 -1.87,-3.45c-2.8,-5.11 -5.75,-10.14 -8.71,-15.16c-5.54,-9.45 -10.99,-18.94 -16.41,-28.45c-4.27,-7.49 -8.58,-14.94 -12.98,-22.35c-4.37,-7.39 -8.51,-14.89 -12.65,-22.4c-3.31,-5.97 -6.78,-11.77 -10.52,-17.48c-2.07,-3.33 -3.77,-6.78 -5.42,-10.32c-1.07,-2.26 -1.07,-2.26 -2.85,-4.1c-1.29,-2.09 -1.29,-2.09 -1.17,-4.93c0.97,-3.49 2.29,-6.53 3.88,-9.79c2.77,-5.72 4.09,-9.89 4.31,-16.23c0.04,-1.12 0.09,-2.23 0.13,-3.38c0.04,-1.16 0.08,-2.32 0.12,-3.51c0.04,-1.18 0.08,-2.35 0.13,-3.56c0.11,-2.9 0.21,-5.8 0.31,-8.69c0.66,0 1.32,0 2,0c-2.23,-5.12 -4.11,-8.97 -9,-12c-3.18,-1.26 -3.18,-1.26 -6,-2c0,-0.66 0,-1.32 0,-2c-0.66,-0.33 -1.32,-0.66 -2,-1c1,-1 1,-1 3.5,-1.1z" fill="#D82846" id="svg_2" transform="translate(249.50390625,151.90234375)"/>
  <path d="m0,0c0.66,0.99 1.32,1.98 2,3c0.66,0.78 1.32,1.57 2,2.38c2,2.62 2,2.62 3.06,5.37c0.31,0.74 0.62,1.48 0.94,2.25c0.99,0.33 1.98,0.66 3,1c0.12,0.71 0.24,1.42 0.37,2.15c0.25,1.38 0.25,1.38 0.51,2.79c0.24,1.37 0.24,1.37 0.49,2.77c0.21,0.76 0.41,1.51 0.63,2.29c0.66,0.33 1.32,0.66 2,1c0,0.99 0,1.98 0,3c1.28,-0.02 1.28,-0.02 2.59,-0.04c1.1,0 2.21,-0.01 3.35,-0.02c1.1,-0.01 2.2,-0.03 3.34,-0.04c2.72,0.1 2.72,0.1 3.72,1.1c0.04,1.67 0.04,3.33 0,5c-0.66,0 -1.32,0 -2,0c0.07,1.02 0.14,2.05 0.22,3.1c-0.25,4.49 -1.34,6.54 -3.73,10.32c-0.36,0.59 -0.72,1.17 -1.1,1.78c-1.16,1.86 -2.33,3.7 -3.51,5.55c-1.53,2.43 -3.05,4.86 -4.58,7.3c-0.37,0.59 -0.74,1.18 -1.12,1.78c-2.83,4.54 -5.44,9.16 -7.95,13.88c-1.14,2.12 -2.36,4.17 -3.6,6.23c-1.94,3.07 -1.94,3.07 -1.63,7.06c12.33,5.9 24.68,8.62 38.21,9.77c0.73,0.07 1.46,0.13 2.21,0.19c3.69,0.31 7.37,0.59 11.06,0.83c8.84,0.62 15.93,1.44 22.46,7.96c2.98,3.8 5.43,7.96 7.87,12.13c0.4,0.65 0.8,1.31 1.21,1.99c2.75,4.88 4.11,9.48 3.98,15.13c-1.56,3.78 -3.5,5.93 -7,8c-2.55,0.28 -4.85,0.39 -7.4,0.36c-0.74,0 -1.48,0 -2.24,0c-2.43,0.01 -4.87,-0.01 -7.31,-0.03c-1.69,0 -3.38,-0.01 -5.08,-0.01c-3.54,0 -7.09,-0.02 -10.63,-0.04c-4.55,-0.03 -9.1,-0.04 -13.66,-0.04c-3.49,-0.01 -6.99,-0.02 -10.48,-0.03c-1.68,0 -3.36,-0.01 -5.04,-0.01c-2.34,-0.01 -4.68,-0.02 -7.02,-0.04c-0.7,0 -1.39,0 -2.11,0c-4.8,-0.05 -4.8,-0.05 -7.03,-1.16c1.47,-3.59 3.38,-5.4 6.44,-7.75c0.78,-0.61 1.56,-1.23 2.37,-1.86c2.19,-1.39 2.19,-1.39 5.19,-1.39c0.37,-1.11 0.37,-1.11 0.75,-2.25c1.38,-3.05 2.64,-4.66 5.25,-6.75c2.75,-0.75 2.75,-0.75 5,-1c0.5,-1.48 0.5,-1.48 1,-3c0.99,0 1.98,0 3,0c0,-0.66 0,-1.32 0,-2c1.99,-1.35 3.99,-2.68 6,-4c0.72,-0.74 1.44,-1.48 2.19,-2.25c1.81,-1.75 1.81,-1.75 4.81,-1.75c0.69,-2.49 1,-4.38 1,-7c-1.31,-0.01 -2.62,-0.02 -3.97,-0.03c-4.93,-0.04 -9.87,-0.1 -14.8,-0.18c-2.13,-0.03 -4.25,-0.05 -6.37,-0.06c-12.91,-0.09 -24.49,-0.86 -36.86,-4.73c-1.08,-0.3 -2.16,-0.6 -3.27,-0.91c-7.21,-2.05 -11.63,-5.84 -15.73,-12.09c-1,-3 -1,-3 -1,-6c-0.02,-0.67 -0.05,-1.33 -0.07,-2.02c-0.39,-15.76 -0.39,-15.76 4.07,-20.98c0.66,0.99 1.32,1.98 2,3c0.03,-0.73 0.05,-1.45 0.08,-2.2c0.05,-1.01 0.11,-2.01 0.17,-3.05c0.07,-1.46 0.07,-1.46 0.14,-2.95c1.62,-10.09 5.8,-18.64 11.05,-27.3c0.56,-0.96 1.12,-1.92 1.69,-2.91c2.82,-4.72 5.21,-8.5 9.87,-11.59c3.67,-3.4 6.36,-6.79 9,-11z" fill="#D82F28" id="svg_3" transform="translate(213,184)"/>
  <path d="m0,0c0.87,0.6 1.74,1.2 2.64,1.82c2.82,1.71 5.51,2.69 8.67,3.62c-4.34,1.45 -6.15,0.4 -10.25,-1.56c-1.36,-0.72 -1.36,-0.72 -2.75,-1.44c0,-0.66 0,-1.32 0,-2c-1.32,0 -2.64,0 -4,0c0,-0.66 0,-1.32 0,-2c-1.98,0 -3.96,0 -6,0c0,-0.66 0,-1.32 0,-2c-3.3,0 -6.6,0 -10,0c0.5,1.48 0.5,1.48 1,3c0.85,0.04 1.69,0.08 2.56,0.12c4.58,1.17 7.42,3.27 10.44,6.88c1.09,2.39 1.53,4.39 2,7c-0.66,0 -1.32,0 -2,0c0.03,0.69 0.05,1.38 0.08,2.09c0.82,24.73 0.82,24.73 -5.08,35.91c-0.78,1.76 -1.55,3.53 -2.31,5.31c-0.56,1.23 -1.12,2.46 -1.69,3.69c-0.33,-0.66 -0.66,-1.32 -1,-2c-2.78,-0.67 -2.78,-0.67 -6,0c-1.63,1.97 -2.81,3.99 -4.02,6.25c-0.32,0.58 -0.64,1.15 -0.98,1.75c-0.33,0 -0.66,0 -1,0c0,-1.65 0,-3.3 0,-5c0.66,0 1.32,0 2,0c-0.33,-1.65 -0.66,-3.3 -1,-5c-0.7,0.01 -1.39,0.02 -2.11,0.03c-0.91,0.01 -1.82,0.02 -2.76,0.03c-0.91,0.01 -1.81,0.02 -2.74,0.04c-2.39,-0.1 -2.39,-0.1 -4.39,-1.1c0,-0.99 0,-1.98 0,-3c-1.48,-0.5 -1.48,-0.5 -3,-1c-1.16,-3.48 -1.07,-6.36 -1,-10c-1.32,-0.33 -2.64,-0.66 -4,-1c-0.27,-1.14 -0.53,-2.27 -0.81,-3.44c-0.59,-1.76 -0.59,-1.76 -1.19,-3.56c-0.99,-0.33 -1.98,-0.66 -3,-1c-0.66,-0.99 -1.32,-1.98 -2,-3c-0.33,0.99 -0.66,1.98 -1,3c-1.98,1.35 -3.98,2.68 -6,4c-0.66,0.99 -1.32,1.98 -2,3c-0.66,-0.33 -1.32,-0.66 -2,-1c0.42,-0.58 0.85,-1.16 1.28,-1.76c3.16,-4.5 5.06,-7.7 5.72,-13.24c1.44,-1.69 1.44,-1.69 3,-3c0.66,-0.99 1.32,-1.98 2,-3c0.66,-0.99 1.32,-1.98 2,-3c0.69,-1.33 1.35,-2.66 2,-4c0.33,-0.66 0.66,-1.32 1,-2c-0.99,-0.33 -1.98,-0.66 -3,-1c1.18,-0.44 1.18,-0.44 2.38,-0.89c7.18,-2.74 7.18,-2.74 13.31,-7.24c10.76,-10.08 25.86,-6.54 37,0.69z" fill="#160732" id="svg_4" transform="translate(268.6875,156.5625)"/>
  <path d="m0,0c22.5,-0.64 22.5,-0.64 30,6c6.9,7.18 13.77,17.88 15.49,27.86c-0.21,4.28 -0.96,5.61 -4.08,8.72c-3.48,2.82 -6.67,3.11 -11.04,3c-0.73,0.01 -1.47,0.01 -2.24,0.01c-2.42,0 -4.85,-0.03 -7.27,-0.07c-1.69,0 -3.38,-0.01 -5.07,-0.01c-3.54,-0.01 -7.07,-0.04 -10.6,-0.08c-4.54,-0.05 -9.07,-0.07 -13.61,-0.09c-4.32,-0.01 -8.65,-0.04 -12.97,-0.07c-0.83,0 -1.65,-0.01 -2.51,-0.01c-2.33,-0.02 -4.66,-0.04 -6.99,-0.07c-0.7,0 -1.39,-0.01 -2.1,-0.01c-4.78,-0.06 -4.78,-0.06 -7.01,-1.18c1.47,-3.59 3.38,-5.4 6.44,-7.75c1.17,-0.92 1.17,-0.92 2.37,-1.86c2.19,-1.39 2.19,-1.39 5.19,-1.39c0.25,-0.74 0.5,-1.48 0.75,-2.25c1.38,-3.05 2.64,-4.66 5.25,-6.75c2.75,-0.75 2.75,-0.75 5,-1c0.33,-0.99 0.66,-1.98 1,-3c0.99,0 1.98,0 3,0c0,-0.66 0,-1.32 0,-2c1.99,-1.35 3.99,-2.68 6,-4c0.72,-0.74 1.44,-1.48 2.19,-2.25c1.81,-1.75 1.81,-1.75 4.81,-1.75c0.69,-2.49 1,-4.38 1,-7c-1.44,-1.69 -1.44,-1.69 -3,-3z" fill="#701C38" id="svg_5" transform="translate(254,286)"/>
  <path d="m0,0c2.86,2.51 4.35,5.27 6.07,8.64c0.59,1.12 1.17,2.25 1.77,3.41c0.61,1.21 1.23,2.43 1.85,3.64c0.63,1.24 1.27,2.47 1.9,3.71c4.54,8.83 9.01,17.7 13.41,26.6c4.24,8.56 8.52,17.07 13.09,25.46c2.32,4.29 4.58,8.6 6.85,12.92c3.18,6.04 6.36,12.09 9.56,18.12c0.33,0.62 0.65,1.23 0.99,1.87c1.4,2.64 2.85,5.14 4.51,7.63c0.66,-3.96 1.32,-7.92 2,-12c0.33,0 0.66,0 1,0c0.22,6 -0.49,11.19 -2,17c-2.5,-1.81 -2.5,-1.81 -5,-4c0,-0.99 0,-1.98 0,-3c-1.65,-0.33 -3.3,-0.66 -5,-1c0.66,-0.33 1.32,-0.66 2,-1c0,-0.99 0,-1.98 0,-3c-1.48,-0.5 -1.48,-0.5 -3,-1c-0.37,-1.32 -0.71,-2.66 -1,-4c-0.66,-0.33 -1.32,-0.66 -2,-1c-1.12,-2.06 -1.12,-2.06 -2,-4c-0.66,0 -1.32,0 -2,0c0,-2.64 0,-5.28 0,-8c-0.66,0 -1.32,0 -2,0c-0.49,-3.47 -0.49,-3.47 -1,-7c-0.99,-0.33 -1.98,-0.66 -3,-1c0,-1.98 0,-3.96 0,-6c-0.66,0 -1.32,0 -2,0c0,-1.32 0,-2.64 0,-4c-0.99,-0.33 -1.98,-0.66 -3,-1c-1.17,-2.4 -1.92,-4.65 -2.5,-7.25c-0.25,-0.87 -0.25,-0.87 -0.5,-1.75c-0.99,-0.49 -0.99,-0.49 -2,-1c-0.94,-1.99 -1.81,-4.02 -2.62,-6.06c-0.45,-1.11 -0.9,-2.21 -1.36,-3.35c-0.33,-0.85 -0.67,-1.71 -1.02,-2.59c-0.99,0.33 -1.98,0.66 -3,1c-0.5,-2.97 -0.5,-2.97 -1,-6c-0.8,0.47 -1.61,0.95 -2.44,1.44c-5.21,2.28 -10.1,3.31 -15.62,1.62c-0.64,-0.35 -1.28,-0.7 -1.94,-1.06c-2.13,2.31 -2.13,2.31 -4,5c0.33,0.99 0.66,1.98 1,3c-0.66,0.66 -1.32,1.32 -2,2c-0.33,0.99 -0.66,1.98 -1,3c-5.22,3 -5.22,3 -8,3c-1.77,-7.07 -0.25,-14.49 3,-21c0.66,0 1.32,0 2,0c0.2,-0.92 0.41,-1.83 0.62,-2.77c0.27,-1.19 0.54,-2.38 0.82,-3.6c0.4,-1.78 0.4,-1.78 0.81,-3.59c0.75,-3.04 0.75,-3.04 1.75,-5.04c-0.23,-0.74 -0.45,-1.48 -0.69,-2.25c-0.31,-2.75 -0.31,-2.75 1.44,-6c2.25,-2.75 2.25,-2.75 5.25,-3.75c2.69,1.44 2.69,1.44 5,3c-0.29,-0.84 -0.58,-1.69 -0.87,-2.55c-0.38,-1.1 -0.75,-2.2 -1.13,-3.32c-0.37,-1.1 -0.74,-2.19 -1.12,-3.31c-0.88,-2.82 -0.88,-2.82 -0.88,-4.82z" fill="#C00A56" id="svg_6" transform="translate(278,168)"/>
  <path d="m0,0c1.51,0.02 1.51,0.02 3.06,0.04c1.01,0 2.02,0.01 3.07,0.02c1.17,0.02 1.17,0.02 2.37,0.04c-0.33,0.99 -0.66,1.98 -1,3c1.98,0 3.96,0 6,0c0,0.66 0,1.32 0,2c1.32,0 2.64,0 4,0c1.02,0.97 2.01,1.98 3,3c1.13,0.45 2.26,0.91 3.43,1.37c3.94,2.12 4.66,4.91 5.94,9.07c1.02,3.83 1.88,7.66 2.63,11.56c-1.98,-0.66 -3.96,-1.32 -6,-2c-2.77,2.5 -4.65,4.19 -5,8c0.18,0.66 0.37,1.32 0.56,2c0.59,2.7 -0.28,3.56 -1.56,6c-0.39,1.37 -0.74,2.74 -1.07,4.12c-0.93,3.88 -0.93,3.88 -1.93,5.88c-0.66,0 -1.32,0 -2,0c-1.97,6.29 -3.65,12.55 -5,19c-0.66,-0.33 -1.32,-0.66 -2,-1c0,-1.32 0,-2.64 0,-4c-0.66,0 -1.32,0 -2,0c-1.69,-1.06 -1.69,-1.06 -3,-3c0,-5.78 2.34,-10.32 4.84,-15.45c1.89,-4.18 2.31,-7.83 2.47,-12.41c0.04,-1.12 0.09,-2.23 0.13,-3.38c0.04,-1.16 0.08,-2.32 0.12,-3.51c0.04,-1.18 0.08,-2.35 0.13,-3.56c0.11,-2.9 0.21,-5.8 0.31,-8.69c0.66,0 1.32,0 2,0c-2.23,-5.12 -4.11,-8.97 -9,-12c-3.18,-1.26 -3.18,-1.26 -6,-2c0,-0.66 0,-1.32 0,-2c-0.66,-0.33 -1.32,-0.66 -2,-1c1,-1 1,-1 3.5,-1.1z" fill="#E96C44" id="svg_7" transform="translate(249.50390625,151.90234375)"/>
  <path d="m0,0c0.66,0 1.32,0 2,0c0.16,0.56 0.32,1.11 0.48,1.69c2.48,8.12 5.61,14.18 12.52,19.31c0,0.66 0,1.32 0,2c0.52,0.25 1.03,0.5 1.56,0.75c3.82,1.96 7.57,4.07 11.2,6.36c4.22,2.61 7.4,3.5 12.24,3.89c0,0.66 0,1.32 0,2c0.63,-0.03 1.26,-0.07 1.91,-0.11c6.84,-0.2 12.92,0.76 19.57,2.32c4.37,0.98 8.76,1.64 13.19,2.26c2.33,0.53 2.33,0.53 4.33,2.53c-6.12,0.1 -12.23,0.17 -18.35,0.22c-2.07,0.02 -4.14,0.05 -6.22,0.08c-12.85,0.21 -24.13,-0.41 -36.43,-4.3c-1.08,-0.3 -2.16,-0.6 -3.27,-0.91c-7.21,-2.05 -11.63,-5.84 -15.73,-12.09c-1,-3 -1,-3 -1,-6c-0.02,-0.67 -0.05,-1.33 -0.07,-2.02c-0.14,-5.66 0.17,-11.38 1.07,-16.98c0.33,-0.33 0.66,-0.66 1,-1z" fill="#FC422F" id="svg_8" transform="translate(177,245)"/>
  <path d="m0,0c0.66,0.33 1.32,0.66 2,1c-0.33,0.66 -0.66,1.32 -1,2c2.02,0 4.04,-0.04 6.06,-0.12c2.94,0.12 2.94,0.12 4.94,2.12c0,0.99 0,1.98 0,3c0.99,0.33 1.98,0.66 3,1c3.79,6.09 3.39,12.09 2,19c-2,2 -2,2 -5.72,2.23c-1.59,0 -3.19,-0.01 -4.79,-0.03c-1.26,-0.01 -1.26,-0.01 -2.55,-0.01c-2.69,-0.01 -5.38,-0.04 -8.07,-0.06c-1.82,-0.02 -3.64,-0.02 -5.46,-0.03c-4.47,-0.02 -8.94,-0.06 -13.41,-0.1c4.75,-5.87 4.75,-5.87 7,-7c-1.32,-0.66 -2.64,-1.32 -4,-2c3.64,-4.31 7.35,-8.55 11.12,-12.75c1.25,-1.38 1.25,-1.38 2.51,-2.8c2.03,-2.09 3.98,-3.8 6.37,-5.45z" fill="#DD5B30" id="svg_9" transform="translate(279,300)"/>
  <path d="m0,0c1.18,3.5 0.83,6.09 0.13,9.69c-0.19,0.97 -0.37,1.94 -0.56,2.95c-0.57,2.36 -0.57,2.36 -1.57,3.36c-1.36,8.47 -2.36,17.95 1,26c1.79,2.15 3.64,4.15 5.64,6.11c1.36,1.89 1.36,1.89 1.2,4.05c-0.84,1.84 -0.84,1.84 -2.96,3.09c-3.52,2.14 -5.7,4.78 -8.33,7.91c-1.55,1.84 -1.55,1.84 -3.55,3.84c-3.49,-2.33 -3.8,-3.44 -5.13,-7.31c-0.33,-0.95 -0.66,-1.89 -1,-2.87c-3.99,-12.99 -2.29,-26.53 4,-38.53c1.93,-3.5 4.01,-6.9 6.13,-10.29c0.81,-1.31 0.81,-1.31 1.63,-2.66c1.11,-1.79 2.23,-3.57 3.37,-5.34z" fill="#513F8A" id="svg_10" transform="translate(179,230)"/>
  <path d="m0,0c0.66,0 1.32,0 2,0c-0.33,0.99 -0.66,1.98 -1,3c0.66,0.33 1.32,0.66 2,1c0,0.99 0,1.98 0,3c1.39,-0.25 1.39,-0.25 2.81,-0.5c4.31,-0.68 8.59,-0.61 12.94,-0.31c4.08,-0.24 7.62,-1.3 11.25,-3.19c0.33,-0.66 0.66,-1.32 1,-2c1.32,0.66 2.64,1.32 4,2c-0.42,6.33 -1.88,10.42 -5.25,15.75c-0.57,0.97 -0.57,0.97 -1.16,1.96c-2.71,4.41 -5.54,8.21 -10.62,10c-4.86,0.57 -7.92,0.37 -11.97,-2.71c-4.78,-6.66 -7.14,-11.89 -7.13,-20.12c0,-1.9 0,-1.9 0,-3.83c0.13,-3.05 0.13,-3.05 1.13,-4.05z" fill="#1E079E" id="svg_11" transform="translate(130,339)"/>
  <path d="m0,0c4.23,0.6 7.41,1.1 10.26,4.5c2.95,4.28 5.44,8.84 7.74,13.5c0.46,0.93 0.46,0.93 0.93,1.87c1.64,3.53 2.45,6.14 1.88,10.01c-0.09,0.76 -0.19,1.52 -0.29,2.3c-0.17,0.6 -0.34,1.2 -0.52,1.82c-0.99,0.49 -0.99,0.49 -2,1c0.02,-0.76 0.05,-1.52 0.07,-2.3c0.02,-0.99 0.04,-1.99 0.06,-3.01c0.02,-0.99 0.04,-1.97 0.07,-2.99c0.01,-2.92 0.01,-2.92 -2.2,-5.7c0,-1.32 0,-2.64 0,-4c-1.32,-0.33 -2.64,-0.66 -4,-1c-0.49,-1.98 -0.49,-1.98 -1,-4c-0.93,0 -1.86,0 -2.81,0c-2.06,0 -4.13,0 -6.19,0c-0.66,0.33 -1.32,0.66 -2,1c0.33,-1.32 0.66,-2.64 1,-4c-5.54,4.61 -10.39,9.46 -15,15c-0.77,0.91 -0.77,0.91 -1.55,1.84c-1.15,1.38 -2.3,2.77 -3.45,4.16c1.65,0 3.3,0 5,0c-2.33,2.33 -4.67,4.67 -7,7c11.55,0.33 23.1,0.66 35,1c0,0.33 0,0.66 0,1c-6.03,0.02 -12.06,0.04 -18.08,0.05c-2.05,0.01 -4.1,0.02 -6.14,0.03c-10.97,0.04 -21.85,0.08 -32.78,-1.08c0,-3 0,-3 1.64,-4.86c0.72,-0.62 1.44,-1.25 2.17,-1.89c0.71,-0.63 1.42,-1.27 2.15,-1.92c1.01,-0.66 1.01,-0.66 2.04,-1.33c0.99,0.33 1.98,0.66 3,1c1.37,0.05 1.37,0.05 4,-1c0.33,-0.82 0.66,-1.65 1,-2.5c0.33,-0.82 0.66,-1.65 1,-2.5c0.99,-0.33 1.98,-0.66 3,-1c0.43,-0.72 0.87,-1.44 1.31,-2.19c3.22,-5.36 7.35,-8.66 12.69,-11.81c0.85,-0.87 1.69,-1.73 2.56,-2.62c2.32,-2.27 3.3,-3.03 6.44,-3.38c0,-0.66 0,-1.32 0,-2zm-31,25c0.66,0.33 1.32,0.66 2,1c-0.99,0.66 -1.98,1.32 -3,2c0.33,-0.99 0.66,-1.98 1,-3z" fill="#A33535" id="svg_12" transform="translate(278,292)"/>
  <path d="m0,0c0.99,0 1.98,0 3,0c-1.43,3.88 -3.25,7.29 -5.38,10.83c-1,1.68 -1,1.68 -2.03,3.4c-0.35,0.59 -0.7,1.17 -1.07,1.78c-1.82,3.03 -3.62,6.07 -5.43,9.11c-0.36,0.59 -0.71,1.19 -1.08,1.8c-2.86,4.83 -5.72,9.65 -8.51,14.52c-0.37,0.62 -0.73,1.25 -1.11,1.89c-1.86,3.27 -2.39,4.78 -2.39,8.67c3.96,1.65 7.92,3.3 12,5c0,0.33 0,0.66 0,1c-2.31,0 -4.62,0 -7,0c0,-0.66 0,-1.32 0,-2c-1.2,0.08 -2.39,0.16 -3.63,0.25c-4.52,0 -6.76,-1.48 -10.37,-4.25c-1.09,-0.6 -2.18,-1.2 -3.3,-1.82c-9.12,-5.15 -17.46,-13.05 -20.7,-23.18c-0.58,-2.72 -0.84,-5.21 -1,-8c0.99,0.99 1.98,1.98 3,3c0.33,-3.96 0.66,-7.92 1,-12c0.33,0 0.66,0 1,0c0.03,0.82 0.05,1.64 0.08,2.49c0.43,8.5 1.33,16.4 7.11,23.01c0.6,0.49 1.19,0.99 1.81,1.5c0.33,0.66 0.66,1.32 1,2c0.62,-0.19 1.24,-0.37 1.87,-0.56c2.13,-0.44 2.13,-0.44 4.13,0.56c2.03,-0.93 4.04,-1.93 6,-3c-0.79,3.41 -1.87,6.69 -3,10c7.05,-3.13 10.18,-5.76 13,-13c0.66,0 1.32,0 2,0c-0.06,-1.18 -0.12,-2.35 -0.19,-3.56c0.02,-5.7 1.72,-9.82 5.56,-14.06c0.87,-0.79 1.74,-1.57 2.63,-2.38c0.87,-0.87 1.73,-1.73 2.62,-2.62c0.79,-0.79 1.57,-1.57 2.38,-2.38c0.56,-0.6 1.11,-1.2 1.69,-1.81c1.31,-1.19 1.31,-1.19 3.31,-1.19c0.33,-1.65 0.66,-3.3 1,-5z" fill="#BA4232" id="svg_13" transform="translate(236,223)"/>
  <path d="m0,0c0.66,0.33 1.32,0.66 2,1c-1.51,4.35 -3.83,7.88 -6.44,11.63c-4.03,5.94 -7.85,11.99 -11.5,18.18c-0.69,1.15 -0.69,1.15 -1.39,2.32c-4.42,7.59 -6.89,15.18 -7.36,24c-0.06,1.11 -0.13,2.23 -0.2,3.38c-0.03,0.82 -0.07,1.64 -0.11,2.49c-2.02,-1.64 -2.02,-1.64 -4,-4c-0.17,-2.8 -0.17,-2.8 0.25,-5.75c0.13,-0.98 0.26,-1.97 0.39,-2.98c0.12,-0.75 0.24,-1.5 0.36,-2.27c-0.8,1.42 -0.8,1.42 -1.63,2.88c-1.22,2.15 -2.46,4.27 -3.8,6.35c-6.28,9.94 -10.72,20.41 -10.7,32.27c0,1.1 0,2.21 0,3.34c0.12,2.86 0.55,5.38 1.13,8.16c0.12,2.68 0.05,5.32 0,8c-0.66,-0.33 -1.32,-0.66 -2,-1c-0.31,-2.14 -0.59,-4.28 -0.77,-6.43c-0.15,-1.62 -0.33,-3.25 -0.58,-4.86c-1.12,-7.74 0.12,-15.06 1.35,-22.71c-0.66,0.99 -1.32,1.98 -2,3c-0.66,0 -1.32,0 -2,0c-0.33,0.99 -0.66,1.98 -1,3c-0.33,0 -0.66,0 -1,0c-1.69,-16.86 13.96,-34.63 23,-48c1.21,3.62 0.54,4.64 -1,8c0.5,0.49 0.5,0.49 1,1c2.12,-2.62 4.13,-5.2 6,-8c0.66,-0.99 1.32,-1.98 2,-3c0.31,-0.66 0.62,-1.32 0.94,-2c1.11,-2.1 2.35,-3.36 4.06,-5c0.66,-0.99 1.32,-1.98 2,-3c0.66,-0.99 1.32,-1.98 2,-3c0.31,-0.66 0.62,-1.32 0.94,-2c1.11,-2.1 2.35,-3.36 4.06,-5c0.66,-0.99 1.32,-1.98 2,-3c0.66,-0.99 1.32,-1.98 2,-3c0.68,-1.33 1.35,-2.66 2,-4zm-32,42c1,2 1,2 1,2l-1,-2zm-7,15c1,2 1,2 1,2l-1,-2z" fill="#07062C" id="svg_14" transform="translate(207,183)"/>
  <path d="m0,0c0.25,0.58 0.49,1.16 0.75,1.75c1.16,2.33 1.16,2.33 3.13,4.13c2.12,2.12 2.12,2.12 4.12,5.25c1.93,2.76 2.9,3.76 6,4.87c0,1.32 0,2.64 0,4c1.65,0.33 3.3,0.66 5,1c0.5,2.97 0.5,2.97 1,6c0.99,0.33 1.98,0.66 3,1c-0.02,0.78 -0.04,1.57 -0.06,2.38c-0.13,2.6 -0.13,2.6 1.06,4.62c-0.47,3.72 -1.25,7.07 -3.62,10c-0.69,0.49 -0.69,0.49 -1.38,1c0,-1.65 0,-3.3 0,-5c0.66,0 1.32,0 2,0c-0.33,-1.65 -0.66,-3.3 -1,-5c-0.7,0.01 -1.4,0.02 -2.12,0.04c-0.91,0 -1.82,0.01 -2.75,0.02c-0.91,0.01 -1.81,0.03 -2.75,0.04c-2.38,-0.1 -2.38,-0.1 -4.38,-1.1c0,-0.99 0,-1.98 0,-3c-0.99,-0.33 -1.98,-0.66 -3,-1c-1.16,-3.47 -1.07,-6.36 -1,-10c-1.32,-0.33 -2.64,-0.66 -4,-1c-0.27,-1.13 -0.54,-2.27 -0.81,-3.44c-0.39,-1.17 -0.79,-2.35 -1.19,-3.56c-0.99,-0.33 -1.98,-0.66 -3,-1c-0.66,-0.99 -1.32,-1.98 -2,-3c-0.33,0.99 -0.66,1.98 -1,3c-1.99,1.35 -3.99,2.69 -6,4c-0.66,0.99 -1.32,1.98 -2,3c-0.66,-0.33 -1.32,-0.66 -2,-1c1.25,-1.9 2.5,-3.79 3.75,-5.69c0.7,-1.05 1.39,-2.11 2.11,-3.2c6.27,-9.11 6.27,-9.11 12.14,-9.11z" fill="#891530" id="svg_15" transform="translate(220,177)"/>
  <path d="m0,0c6.64,6.21 12.19,17.21 13.25,26.19c0.05,4.26 -0.65,7.32 -3.25,10.81c-1.94,1.31 -1.94,1.31 -4,2c-0.6,0.21 -1.2,0.41 -1.81,0.63c-3.07,0.52 -6.08,0.43 -9.19,0.37c-0.33,-0.66 -0.66,-1.32 -1,-2c-1.32,0 -2.64,0 -4,0c0.4,-5.42 0.97,-9.93 3,-15c-0.21,-0.8 -0.41,-1.61 -0.63,-2.44c-0.37,-2.56 -0.37,-2.56 1.38,-5.81c2.25,-2.75 2.25,-2.75 5.25,-3.75c2.69,1.44 2.69,1.44 5,3c-0.29,-0.84 -0.58,-1.69 -0.87,-2.55c-0.38,-1.1 -0.75,-2.2 -1.13,-3.32c-0.37,-1.1 -0.74,-2.19 -1.12,-3.31c-0.88,-2.82 -0.88,-2.82 -0.88,-4.82z" fill="#D3298B" id="svg_16" transform="translate(278,168)"/>
  <path d="m0,0c24.42,0 48.84,0 74,0c-1.32,0.66 -2.64,1.32 -4,2c-0.61,0.74 -0.61,0.74 -1.24,1.49c-2.85,2.44 -6.37,2.87 -9.95,3.64c-0.73,0.16 -1.46,0.33 -2.21,0.51c-20.14,4.53 -37.85,1.16 -56.6,-6.64c0,-0.33 0,-0.66 0,-1z" fill="#10072C" id="svg_17" transform="translate(212,331)"/>
  <path d="m0,0c7.09,-0.1 13.98,-0.1 21,1c0,0.33 0,0.66 0,1c-1.07,0.23 -2.14,0.45 -3.25,0.69c-4.26,1.49 -5.22,2.69 -7.75,6.31c-3.13,3.37 -6.08,5.65 -10,8c-0.83,0.82 -1.65,1.65 -2.5,2.5c-2.4,2.4 -4.58,3.82 -7.5,5.5c-1.7,1.29 -3.36,2.63 -5,4c-0.56,0.46 -1.12,0.91 -1.7,1.38c-6.99,5.8 -6.99,5.8 -11.3,13.62c1.98,0 3.96,0 6,0c0,0.33 0,0.66 0,1c-2.63,0.03 -5.25,0.05 -7.88,0.06c-0.74,0.01 -1.49,0.02 -2.26,0.03c-5.63,0.02 -5.63,0.02 -7.86,-1.09c1.47,-3.59 3.38,-5.4 6.44,-7.75c1.17,-0.92 1.17,-0.92 2.37,-1.86c2.19,-1.39 2.19,-1.39 5.19,-1.39c0.25,-0.74 0.5,-1.48 0.75,-2.25c1.38,-3.05 2.64,-4.66 5.25,-6.75c2.75,-0.75 2.75,-0.75 5,-1c0.33,-0.99 0.66,-1.98 1,-3c0.99,0 1.98,0 3,0c0,-0.66 0,-1.32 0,-2c1.99,-1.35 3.99,-2.68 6,-4c0.72,-0.74 1.44,-1.48 2.19,-2.25c1.81,-1.75 1.81,-1.75 4.81,-1.75c0.69,-2.49 1,-4.38 1,-7c-1.44,-1.69 -1.44,-1.69 -3,-3z" fill="#50093A" id="svg_18" transform="translate(254,286)"/>
  <path d="m0,0c4.57,4.23 6.65,8.98 7.19,15.22c0.43,12.21 -1.86,22.57 -6.6,33.78c-1.39,3.31 -2.18,6.41 -2.59,10c-0.66,-0.33 -1.32,-0.66 -2,-1c0,-1.32 0,-2.64 0,-4c-0.66,0 -1.32,0 -2,0c-1.69,-1.06 -1.69,-1.06 -3,-3c0,-5.77 2.35,-10.32 4.84,-15.45c1.9,-4.18 2.31,-7.83 2.48,-12.41c0.04,-1.11 0.08,-2.23 0.12,-3.38c0.04,-1.16 0.08,-2.32 0.12,-3.51c0.05,-1.17 0.09,-2.35 0.13,-3.56c0.11,-2.9 0.21,-5.79 0.31,-8.69c0.66,0 1.32,0 2,0c-0.33,-1.32 -0.66,-2.64 -1,-4z" fill="#FA6345" id="svg_19" transform="translate(262,166)"/>
  <path d="m0,0c1.75,0.06 1.75,0.06 4,1c1.01,1.7 2.01,3.4 2.91,5.16c1.16,2.15 1.16,2.15 3.9,4.53c2.19,2.31 2.19,2.31 2.32,4.44c-1.13,1.87 -1.13,1.87 -3.25,3.12c-3.52,2.14 -5.7,4.78 -8.33,7.91c-1.55,1.84 -1.55,1.84 -3.55,3.84c-4.26,-2.84 -4.9,-6.13 -6,-11c-0.5,-4.8 -0.73,-7.91 2,-12c0.66,0 1.32,0 2,0c0.29,-0.6 0.58,-1.2 0.87,-1.81c1.13,-2.19 1.13,-2.19 3.13,-5.19z" fill="#225A83" id="svg_20" transform="translate(172,267)"/>
  <path d="m0,0c1.94,0.38 1.94,0.38 4,1c0.33,0.66 0.66,1.32 1,2c2.53,0.66 2.53,0.66 5,1c-0.66,1.98 -1.32,3.96 -2,6c0.66,0.33 1.32,0.66 2,1c0.63,2.56 0.63,2.56 1,5c0.66,0 1.32,0 2,0c0,0.99 0,1.98 0,3c0.66,0.33 1.32,0.66 2,1c0.99,0.66 1.98,1.32 3,2c-0.04,0.78 -0.08,1.57 -0.12,2.38c-0.18,2.85 -0.18,2.85 2.43,4.75c0.89,0.61 1.78,1.23 2.69,1.87c1.81,1.31 1.81,1.31 3,3c-0.02,1.13 -0.04,2.27 -0.06,3.44c-0.29,3.59 -0.29,3.59 1.87,6c2.15,1.85 2.15,1.85 5.19,1.56c0,1.32 0,2.64 0,4c3.33,1.11 5.62,0.84 9,0c0,-1.32 0,-2.64 0,-4c0.62,-0.08 1.24,-0.16 1.88,-0.25c2.3,-0.56 2.3,-0.56 3.37,-2.81c0.25,-0.64 0.49,-1.28 0.75,-1.94c0.33,0 0.66,0 1,0c0.43,4.37 0.55,6.31 -2.25,9.81c-3.69,2.93 -5.23,4.16 -10,4.25c-7.22,-2.04 -11.5,-7.2 -15.21,-13.54c-1.13,-2.08 -2.25,-4.17 -3.35,-6.27c-1.21,-2.23 -2.42,-4.45 -3.62,-6.68c-0.89,-1.65 -0.89,-1.65 -1.8,-3.34c-3.06,-5.6 -6.31,-11.08 -9.57,-16.57c-3.2,-5.45 -3.2,-5.45 -3.2,-7.66z" fill="#D45E2C" id="svg_21" transform="translate(310,316)"/>
  <path d="m0,0c2.95,1.48 3.31,3.56 4.63,6.56c5.27,11.73 11.15,23.14 17.24,34.46c2.4,4.48 4.77,8.98 7.13,13.48c3.16,6 6.32,12.01 9.5,18c0.33,0.62 0.65,1.23 0.99,1.87c1.4,2.64 2.85,5.14 4.51,7.63c0.66,-3.96 1.32,-7.92 2,-12c0.33,0 0.66,0 1,0c0.22,6 -0.49,11.19 -2,17c-2.5,-1.81 -2.5,-1.81 -5,-4c0,-0.99 0,-1.98 0,-3c-1.65,-0.33 -3.3,-0.66 -5,-1c0.66,-0.33 1.32,-0.66 2,-1c0,-0.99 0,-1.98 0,-3c-0.99,-0.33 -1.98,-0.66 -3,-1c-0.37,-1.32 -0.71,-2.66 -1,-4c-0.99,-0.5 -0.99,-0.5 -2,-1c-1.12,-2.06 -1.12,-2.06 -2,-4c-0.66,0 -1.32,0 -2,0c0,-2.64 0,-5.28 0,-8c-0.66,0 -1.32,0 -2,0c-0.33,-2.31 -0.66,-4.62 -1,-7c-1.48,-0.49 -1.48,-0.49 -3,-1c0,-1.98 0,-3.96 0,-6c-0.66,0 -1.32,0 -2,0c0,-1.32 0,-2.64 0,-4c-1.48,-0.49 -1.48,-0.49 -3,-1c-1.17,-2.4 -1.92,-4.65 -2.5,-7.25c-0.16,-0.58 -0.33,-1.16 -0.5,-1.75c-0.66,-0.33 -1.32,-0.66 -2,-1c-0.94,-1.99 -1.81,-4.02 -2.62,-6.06c-0.45,-1.11 -0.9,-2.21 -1.36,-3.35c-0.33,-0.85 -0.67,-1.71 -1.02,-2.59c-0.99,0.33 -1.98,0.66 -3,1c-0.33,-1.98 -0.66,-3.96 -1,-6c-0.99,-0.33 -1.98,-0.66 -3,-1c0.99,-0.33 1.98,-0.66 3,-1c-0.66,-2.97 -1.32,-5.94 -2,-9z" fill="#5B1054" id="svg_22" transform="translate(294,198)"/>
  <path d="m0,0c0.99,0 1.98,0 3,0c-1.43,3.88 -3.25,7.29 -5.38,10.83c-0.67,1.12 -1.34,2.24 -2.03,3.4c-0.35,0.59 -0.7,1.17 -1.07,1.77c-1.82,3.04 -3.62,6.08 -5.43,9.12c-0.71,1.19 -1.42,2.38 -2.13,3.57c-2.5,4.22 -5.01,8.44 -7.46,12.69c-0.37,0.61 -0.73,1.23 -1.11,1.86c-1.94,3.4 -2.8,5.84 -2.39,9.76c-2.97,-1.12 -5.33,-2.22 -8,-4c0.38,-2.42 0.58,-3.66 2.52,-5.24c0.61,-0.35 1.23,-0.71 1.85,-1.07c4.04,-2.65 5.12,-5.17 6.63,-9.69c0.66,0 1.32,0 2,0c-0.06,-1.18 -0.12,-2.35 -0.19,-3.56c0.02,-5.7 1.72,-9.82 5.56,-14.06c0.87,-0.79 1.74,-1.57 2.63,-2.38c0.87,-0.87 1.73,-1.73 2.62,-2.62c0.79,-0.79 1.57,-1.57 2.38,-2.38c0.56,-0.6 1.11,-1.2 1.69,-1.81c1.31,-1.19 1.31,-1.19 3.31,-1.19c0.33,-1.65 0.66,-3.3 1,-5z" fill="#671649" id="svg_23" transform="translate(236,223)"/>
  <path d="m0,0c0.66,0.33 1.32,0.66 2,1c0.1,0.62 0.21,1.24 0.31,1.88c0.5,2.38 0.5,2.38 3.13,3.43c3.52,2.32 3.48,4.73 4.56,8.69c1.82,1.2 1.82,1.2 4,2c4.78,4.33 4.78,4.33 6,8c3.01,1.23 3.01,1.23 6,2c1.04,6.95 1.47,11.76 -2,18c-0.33,0 -0.66,0 -1,0c0.02,-0.93 0.04,-1.86 0.06,-2.81c0.1,-3.21 0.1,-3.21 -1.06,-6.19c0,-0.99 0,-1.98 0,-3c-0.99,-0.49 -0.99,-0.49 -2,-1c-0.62,-3.06 -0.62,-3.06 -1,-6c-1.65,-0.33 -3.3,-0.66 -5,-1c-0.06,-0.6 -0.12,-1.2 -0.19,-1.81c-0.63,-2.41 -0.63,-2.41 -3.12,-3.56c-3.35,-2.03 -4.76,-4.27 -6.69,-7.63c0,-0.66 0,-1.32 0,-2c-1.32,-0.66 -2.64,-1.32 -4,-2c0,-0.99 0,-1.98 0,-3c-4.6,1.77 -7.71,3.19 -11,7c-0.33,-0.66 -0.66,-1.32 -1,-2c4.19,-5.69 4.19,-5.69 8,-7c1.32,0 2.64,0 4,0c0,-0.99 0,-1.98 0,-3z" fill="#510433" id="svg_24" transform="translate(220,172)"/>
  <path d="m0,0c2.31,0.33 4.62,0.66 7,1c0,0.66 0,1.32 0,2c2.97,0.5 2.97,0.5 6,1c0,-0.66 0,-1.32 0,-2c1.32,0 2.64,0 4,0c0,0.66 0,1.32 0,2c1.32,-0.33 2.64,-0.66 4,-1c1.29,3.88 0.75,5.35 -1,9c-3.34,2.46 -5.99,3.25 -10.06,3c-3.01,-0.55 -4.24,-1.21 -6.88,-3c-2.71,-3.95 -2.95,-7.3 -3.06,-12z" fill="#1E02D3" id="svg_25" transform="translate(133,355)"/>
  <path d="m0,0c1.32,0.66 2.64,1.32 4,2c-3.07,3.39 -6.3,5.96 -10.06,8.56c-5.01,3.57 -9.18,7.52 -13.43,11.92c-4.83,4.95 -10.05,9.26 -15.51,13.52c1.32,0.66 2.64,1.32 4,2c-3.96,0 -7.92,0 -12,0c0,-3 0,-3 1.64,-4.86c0.72,-0.62 1.44,-1.25 2.17,-1.89c0.71,-0.63 1.42,-1.27 2.15,-1.92c1.01,-0.66 1.01,-0.66 2.04,-1.33c0.99,0.33 1.98,0.66 3,1c1.37,0.05 1.37,0.05 4,-1c0.33,-0.82 0.66,-1.65 1,-2.5c0.33,-0.82 0.66,-1.65 1,-2.5c0.99,-0.33 1.98,-0.66 3,-1c0.43,-0.72 0.87,-1.44 1.31,-2.19c3.22,-5.36 7.35,-8.66 12.69,-11.81c0.85,-0.87 1.69,-1.73 2.56,-2.62c2.32,-2.27 3.3,-3.03 6.44,-3.38c0,-0.66 0,-1.32 0,-2zm-31,25c0.66,0.33 1.32,0.66 2,1c-0.99,0.66 -1.98,1.32 -3,2c0.33,-0.99 0.66,-1.98 1,-3z" fill="#8D2E37" id="svg_26" transform="translate(278,292)"/>
  <path d="m0,0c1.61,0.45 3.21,0.91 4.81,1.38c0.9,0.25 1.79,0.51 2.71,0.77c2.48,0.85 2.48,0.85 5.48,2.85c-0.99,0.99 -1.98,1.98 -3,3c-0.66,-0.33 -1.32,-0.66 -2,-1c-4.43,1.25 -7.3,3.7 -10.69,6.75c-1.43,1.26 -1.43,1.26 -2.88,2.55c-2.57,2.86 -3.51,5 -4.43,8.7c-3.74,-2.66 -5.65,-4.58 -7,-9c0.57,-0.23 1.13,-0.45 1.71,-0.68c2.93,-1.69 4.67,-3.81 6.85,-6.38c4.11,-4.83 4.11,-4.83 7.44,-5.94c0.33,-0.99 0.66,-1.98 1,-3z" fill="#163465" id="svg_27" transform="translate(185,280)"/>
  <path d="m0,0c0.75,0.41 1.5,0.82 2.27,1.24c1.47,0.81 1.47,0.81 2.98,1.64c1.46,0.8 1.46,0.8 2.95,1.61c1.39,0.75 1.39,0.75 2.8,1.51c1.05,0.57 1.05,0.57 2.13,1.16c2.85,1.28 5.78,1.48 8.87,1.84c0,0.66 0,1.32 0,2c1.03,-0.03 1.03,-0.03 2.09,-0.07c12.93,-0.25 12.93,-0.25 17.91,2.07c0.71,1.31 1.38,2.64 2,4c-4.27,0.06 -8.54,0.09 -12.81,0.13c-1.22,0.01 -2.43,0.03 -3.68,0.05c-1.17,0 -2.33,0.01 -3.53,0.02c-1.61,0.01 -1.61,0.01 -3.25,0.03c-2.73,-0.23 -2.73,-0.23 -5.73,-2.23c-0.33,-0.99 -0.66,-1.98 -1,-3c-0.99,0 -1.98,0 -3,0c0,-0.99 0,-1.98 0,-3c-0.66,-0.33 -1.32,-0.66 -2,-1c-0.99,-0.66 -1.98,-1.32 -3,-2c-1.32,0 -2.64,0 -4,0c-0.66,-1.98 -1.32,-3.96 -2,-6z" fill="#F5523B" id="svg_28" transform="translate(195,270)"/>
  <path d="m0,0c1.86,1.21 3.7,2.43 5.53,3.69c2.82,1.71 5.52,2.69 8.67,3.62c-4.34,1.45 -6.15,0.41 -10.25,-1.56c-1.36,-0.71 -1.36,-0.71 -2.75,-1.44c0,-0.66 0,-1.32 0,-2c-1.32,0 -2.64,0 -4,0c0,-0.66 0,-1.32 0,-2c-1.98,0 -3.96,0 -6,0c0,-0.66 0,-1.32 0,-2c-3.3,0 -6.6,0 -10,0c0.33,0.99 0.66,1.98 1,3c0.85,0.04 1.69,0.09 2.57,0.13c4.57,1.16 7.41,3.26 10.43,6.87c1.09,2.39 1.53,4.39 2,7c-0.66,0 -1.32,0 -2,0c0,1.98 0,3.96 0,6c-1.02,-2.04 -2.04,-4.09 -3.04,-6.15c-2.92,-5.68 -6.5,-11.28 -12.81,-13.5c-2.66,-0.43 -5.2,-0.44 -7.9,-0.41c-0.98,0.01 -1.97,0.02 -2.98,0.03c-1.12,0.01 -1.12,0.01 -2.27,0.03c8.49,-9.5 23.96,-7.24 33.8,-1.31z" fill="#511C24" id="svg_29" transform="translate(265.796875,154.6875)"/>
  <path d="m0,0c0.66,0.33 1.32,0.66 2,1c-1.51,4.35 -3.83,7.88 -6.44,11.63c-4.03,5.94 -7.85,11.99 -11.5,18.18c-0.46,0.77 -0.92,1.53 -1.39,2.32c-4.42,7.59 -6.89,15.18 -7.36,24c-0.06,1.11 -0.13,2.23 -0.2,3.38c-0.03,0.82 -0.07,1.64 -0.11,2.49c-2.04,-1.55 -2.04,-1.55 -4,-4c0.01,-3.38 0.01,-3.38 0.69,-7.12c0.21,-1.25 0.42,-2.49 0.63,-3.76c0.68,-3.12 0.68,-3.12 1.68,-5.12c0.66,0 1.32,0 2,0c1.22,-3.32 2.04,-6.29 2.5,-9.81c0.16,-1.05 0.33,-2.11 0.5,-3.19c0.66,-0.33 1.32,-0.66 2,-1c0.68,-1.32 1.35,-2.66 2,-4c0.66,-0.66 1.32,-1.32 2,-2c0.66,-0.99 1.32,-1.98 2,-3c0.66,-0.99 1.32,-1.98 2,-3c0.31,-0.66 0.62,-1.32 0.94,-2c1.11,-2.1 2.35,-3.36 4.06,-5c0.66,-0.99 1.32,-1.98 2,-3c0.66,-0.99 1.32,-1.98 2,-3c0.68,-1.33 1.35,-2.66 2,-4z" fill="#360C1D" id="svg_30" transform="translate(207,183)"/>
  <path d="m0,0c0.66,0 1.32,0 2,0c-0.33,0.99 -0.66,1.98 -1,3c0.66,0.33 1.32,0.66 2,1c0,0.99 0,1.98 0,3c1.39,-0.25 1.39,-0.25 2.81,-0.5c4.31,-0.68 8.59,-0.61 12.94,-0.31c4.08,-0.24 7.62,-1.3 11.25,-3.19c0.33,-0.66 0.66,-1.32 1,-2c1.32,0.66 2.64,1.32 4,2c-0.39,5.71 -0.87,8.74 -5,13c0,-1.65 0,-3.3 0,-5c-8.43,-1.71 -8.43,-1.71 -17,-2c-3.67,0 -7.33,0 -11,0c-0.33,2.97 -0.66,5.94 -1,9c-2.48,-3.71 -2.24,-5.71 -2.19,-10.12c0.01,-1.27 0.02,-2.53 0.02,-3.83c0.17,-3.05 0.17,-3.05 1.17,-4.05z" fill="#1D0985" id="svg_31" transform="translate(130,339)"/>
  <path d="m0,0c1.32,0.33 2.64,0.66 4,1c1.68,6.73 1.68,6.73 -0.16,10.17c-1.54,2.02 -3.16,3.93 -4.84,5.83c-0.5,0.74 -1,1.47 -1.52,2.23c-0.73,0.88 -0.73,0.88 -1.48,1.77c-0.99,0 -1.98,0 -3,0c-1.17,-2.34 -1.17,-3.83 -1.19,-6.44c-0.01,-0.78 -0.03,-1.56 -0.04,-2.37c0.23,-2.19 0.23,-2.19 2.23,-5.19c0.66,0 1.32,0 2,0c0.29,-0.6 0.58,-1.2 0.87,-1.81c1.13,-2.19 1.13,-2.19 3.13,-5.19z" fill="#3CADCF" id="svg_32" transform="translate(172,267)"/>
  <path d="m0,0c4.53,4.13 6.07,9.51 6.47,15.48c0.03,1.57 0.04,3.14 0.03,4.71c0,0.83 -0.01,1.66 -0.01,2.51c-0.2,7.5 -2.2,13.56 -5.49,20.3c-0.77,1.77 -1.55,3.54 -2.31,5.31c-0.56,1.23 -1.12,2.46 -1.69,3.69c-0.33,-0.66 -0.66,-1.32 -1,-2c-3.03,-0.66 -3.03,-0.66 -6,-1c1.29,-5.04 3.17,-7.53 7,-11c4.11,-3.99 6.22,-6.48 6.41,-12.32c0.04,-1.03 0.08,-2.06 0.12,-3.12c0.05,-1.61 0.05,-1.61 0.1,-3.25c0.03,-1.08 0.07,-2.16 0.11,-3.28c0.1,-2.68 0.18,-5.35 0.26,-8.03c-0.66,0 -1.32,0 -2,0c-0.66,-2.64 -1.32,-5.28 -2,-8z" fill="#230921" id="svg_33" transform="translate(255,165)"/>
  <path d="m0,0c3.25,2.63 4.83,6.06 6,10c0.25,2.83 0.07,5.55 -0.19,8.38c-0.04,0.72 -0.09,1.44 -0.13,2.19c-0.14,1.82 -0.4,3.63 -0.68,5.43c-0.66,0.33 -1.32,0.66 -2,1c-0.73,2.31 -1.4,4.65 -2,7c-0.66,0 -1.32,0 -2,0c0,-9.9 0,-19.8 0,-30c0.66,0 1.32,0 2,0c-0.33,-1.32 -0.66,-2.64 -1,-4z" fill="#ED5133" id="svg_34" transform="translate(262,166)"/>
  <path d="m0,0c3.63,0 7.26,0 11,0c-0.33,0.99 -0.66,1.98 -1,3c1.98,0 3.96,0 6,0c0,0.66 0,1.32 0,2c1.32,0 2.64,0 4,0c2.88,2.37 4.4,4.68 6,8c0.66,0.33 1.32,0.66 2,1c0,0.66 0,1.32 0,2c-6.62,1.13 -6.62,1.13 -10,0c-0.69,-2.06 -0.69,-2.06 -1,-4c-0.66,0 -1.32,0 -2,0c-0.33,-1.98 -0.66,-3.96 -1,-6c-0.8,-0.1 -1.61,-0.21 -2.44,-0.31c-4.34,-0.84 -8.39,-2.22 -12.56,-3.69c0.33,-0.66 0.66,-1.32 1,-2z" fill="#FC7330" id="svg_35" transform="translate(247,152)"/>
  <path d="m0,0c3.08,0.93 5.72,1.82 8.44,3.56c3.16,1.78 5.97,2.09 9.56,2.44c0,0.66 0,1.32 0,2c1.98,0 3.96,0 6,0c0,0.66 0,1.32 0,2c7.52,0.96 14.99,1.31 22.56,1.56c1.8,0.07 1.8,0.07 3.64,0.13c2.93,0.11 5.87,0.21 8.8,0.31c-0.49,-1.48 -0.49,-1.48 -1,-3c2.63,0.28 5.25,0.57 7.88,0.88c1.11,0.11 1.11,0.11 2.26,0.23c5.63,0.66 5.63,0.66 7.86,2.89c-6.12,0.1 -12.23,0.17 -18.35,0.22c-2.07,0.02 -4.14,0.05 -6.22,0.08c-12.83,0.21 -24.15,-0.35 -36.43,-4.3c-1.12,-0.34 -2.24,-0.69 -3.4,-1.04c-5.23,-1.65 -8.71,-3.01 -11.6,-7.96z" fill="#AA4C39" id="svg_36" transform="translate(180,275)"/>
  <path d="m0,0c4.71,3.2 6.62,6.49 8.94,11.5c0.68,1.43 1.37,2.85 2.06,4.28c0.5,1.06 0.5,1.06 1.01,2.15c1.45,3.04 2.97,6.05 4.49,9.07c0.83,1.67 1.67,3.33 2.5,5c0.33,0 0.66,0 1,0c0.66,-3.96 1.32,-7.92 2,-12c0.33,0 0.66,0 1,0c0.22,6 -0.49,11.19 -2,17c-2.5,-1.81 -2.5,-1.81 -5,-4c0,-0.99 0,-1.98 0,-3c-1.65,-0.33 -3.3,-0.66 -5,-1c0.66,-0.33 1.32,-0.66 2,-1c0,-0.99 0,-1.98 0,-3c-0.99,-0.33 -1.98,-0.66 -3,-1c-0.37,-1.32 -0.71,-2.66 -1,-4c-0.66,-0.33 -1.32,-0.66 -2,-1c-1.12,-2.06 -1.12,-2.06 -2,-4c-0.66,0 -1.32,0 -2,0c0,-2.64 0,-5.28 0,-8c-0.66,0 -1.32,0 -2,0c-0.33,-2.31 -0.66,-4.62 -1,-7z" fill="#7C0F52" id="svg_37" transform="translate(318,248)"/>
  <path d="m0,0c0.99,0 1.98,0 3,0c0.43,0.49 0.87,0.99 1.31,1.5c2.46,2.19 4.5,1.64 7.69,1.5c0.66,0.33 1.32,0.66 2,1c0,-0.66 0,-1.32 0,-2c1.32,0 2.64,0 4,0c0,0.66 0,1.32 0,2c0.66,0 1.32,0 2,0c0,-0.66 0,-1.32 0,-2c1.32,0 2.64,0 4,0c0.25,1.6 0.47,3.21 0.69,4.81c0.13,0.9 0.25,1.79 0.38,2.71c-0.07,2.48 -0.07,2.48 -1.55,4.3c-0.5,0.39 -1,0.78 -1.52,1.18c0,-1.98 0,-3.96 0,-6c-1.32,0 -2.64,0 -4,0c0,-0.66 0,-1.32 0,-2c-1.32,0 -2.64,0 -4,0c0,0.66 0,1.32 0,2c-2.97,-0.49 -2.97,-0.49 -6,-1c0,-0.66 0,-1.32 0,-2c-2.31,-0.33 -4.62,-0.66 -7,-1c0.33,2.64 0.66,5.28 1,8c-2,-2 -2,-2 -2.2,-4.6c0.03,-1 0.05,-2 0.07,-3.02c0.02,-1.01 0.04,-2.01 0.06,-3.04c0.02,-0.77 0.05,-1.55 0.07,-2.34z" fill="#1F04B8" id="svg_38" transform="translate(132,350)"/>
  <path d="m0,0c2.6,3.07 3.7,5.74 4.69,9.63c0.25,0.96 0.5,1.92 0.76,2.91c0.55,2.46 0.55,2.46 0.55,4.46c-4.99,4.26 -8.41,5.89 -15,6c-0.66,-0.66 -1.32,-1.32 -2,-2c4.54,-4.79 4.54,-4.79 7.19,-6c1.98,-0.9 1.98,-0.9 3.06,-3.06c1.02,-4.01 0.91,-7.83 0.75,-11.94z" fill="#9A0D70" id="svg_39" transform="translate(290,190)"/>
  <path d="m0,0c0.66,0.33 1.32,0.66 2,1c-0.78,0.76 -1.57,1.53 -2.38,2.31c-2.69,2.6 -2.69,2.6 -4.62,5.69c-0.66,0 -1.32,0 -2,0c-0.33,0.99 -0.66,1.98 -1,3c-1.64,1.04 -3.31,2.04 -5,3c-0.52,0.52 -1.03,1.03 -1.56,1.56c-1.44,1.44 -1.44,1.44 -3.44,2.38c-2.13,0.93 -2.13,0.93 -3.31,3c-1.69,2.06 -1.69,2.06 -5.13,3.5c-3.85,1.69 -5.3,3.08 -7.56,6.56c-0.33,0.99 -0.66,1.98 -1,3c-1.32,-0.33 -2.64,-0.66 -4,-1c1.47,-3.59 3.38,-5.4 6.44,-7.75c1.17,-0.92 1.17,-0.92 2.37,-1.86c2.19,-1.39 2.19,-1.39 5.19,-1.39c0.25,-0.74 0.5,-1.48 0.75,-2.25c1.38,-3.05 2.64,-4.66 5.25,-6.75c2.75,-0.75 2.75,-0.75 5,-1c0.33,-0.99 0.66,-1.98 1,-3c0.99,0 1.98,0 3,0c0,-0.66 0,-1.32 0,-2c1.99,-1.35 3.99,-2.68 6,-4c1.37,-1.3 2.72,-2.62 4,-4z" fill="#390638" id="svg_40" transform="translate(253,296)"/>
  <path d="m0,0c0.99,0 1.98,0 3,0c-1.33,3.33 -2.67,6.67 -4,10c-0.66,0 -1.32,0 -2,0c-0.25,0.68 -0.5,1.36 -0.75,2.06c-1.48,3.49 -3.32,6.69 -5.25,9.94c-0.5,0.85 -1.01,1.69 -1.52,2.57c-2.11,3.52 -4.2,7.02 -6.48,10.43c0.33,-2.31 0.66,-4.62 1,-7c-0.66,-0.33 -1.32,-0.66 -2,-1c0.66,-0.33 1.32,-0.66 2,-1c0.33,-0.99 0.66,-1.98 1,-3c0.54,-0.47 1.07,-0.95 1.62,-1.44c0.46,-0.51 0.91,-1.03 1.38,-1.56c-0.16,-0.66 -0.33,-1.32 -0.5,-2c-0.16,-0.66 -0.33,-1.32 -0.5,-2c1.25,-1.44 1.25,-1.44 3,-3c0.52,-0.89 1.03,-1.77 1.56,-2.69c0.48,-0.76 0.95,-1.52 1.44,-2.31c0.66,0 1.32,0 2,0c2.36,-2.65 3.87,-4.62 5,-8z" fill="#0B0835" id="svg_41" transform="translate(184,216)"/>
  <path d="m0,0c0.99,0 1.98,0 3,0c1.76,3.09 2,4.23 2,8c-1.98,-0.66 -3.96,-1.32 -6,-2c-2.77,2.5 -4.64,4.19 -5,8c0.19,0.66 0.37,1.32 0.56,2c0.59,2.7 -0.28,3.57 -1.56,6c-0.54,2.06 -1,4.12 -1.44,6.2c-0.56,1.8 -0.56,1.8 -2.56,3.8c0.14,-1.15 0.29,-2.3 0.44,-3.48c1.12,-9.24 1.86,-18.2 1.56,-27.52c1.3,0.02 2.6,0.04 3.94,0.06c1.35,0.02 2.71,0.01 4.06,-0.06c0.33,-0.33 0.66,-0.66 1,-1z" fill="#F25575" id="svg_42" transform="translate(277,174)"/>
  <path d="m0,0c1.89,0.03 1.89,0.03 3.81,0.06c-2.33,2.34 -4.66,4.67 -7,7c11.55,0.33 23.1,0.66 35,1c0,0.33 0,0.66 0,1c-6.23,0.08 -12.46,0.13 -18.69,0.17c-2.12,0.01 -4.24,0.03 -6.36,0.06c-3.04,0.04 -6.08,0.05 -9.13,0.07c-0.95,0.01 -1.9,0.03 -2.88,0.04c-1.32,0 -1.32,0 -2.67,0c-0.78,0.01 -1.56,0.02 -2.36,0.02c-0.63,-0.12 -1.26,-0.23 -1.91,-0.36c-0.66,-0.99 -1.32,-1.98 -2,-3c1.1,-0.81 2.21,-1.63 3.31,-2.43c0.62,-0.46 1.23,-0.91 1.87,-1.38c3,-1.96 5.52,-2.31 9.01,-2.25z" fill="#B04C3D" id="svg_43" transform="translate(260.1875,321.9375)"/>
  <path d="m0,0c0,4.05 -1.62,6.53 -4.38,9.46c-1.71,1.63 -3.49,3.16 -5.29,4.7c-2.96,2.57 -5.75,5.23 -8.47,8.06c-0.68,0.7 -1.36,1.41 -2.06,2.13c-1.39,1.46 -2.77,2.92 -4.15,4.39c-0.67,0.7 -1.35,1.39 -2.04,2.1c-0.6,0.63 -1.2,1.27 -1.81,1.92c-1.8,1.24 -1.8,1.24 -4.03,0.94c-0.58,-0.23 -1.17,-0.46 -1.77,-0.7c0.71,-0.7 1.41,-1.41 2.14,-2.13c1.9,-1.91 3.8,-3.82 5.69,-5.74c4.93,-4.98 9.87,-9.85 15.21,-14.4c3.83,-3.39 7.38,-7.08 10.96,-10.73z" fill="#D32425" id="svg_44" transform="translate(222,224)"/>
  <path d="m0,0c0.99,0 1.98,0 3,0c-1.13,3.3 -2.63,6.3 -4.38,9.31c-0.39,0.7 -0.79,1.4 -1.21,2.12c-0.46,0.52 -0.93,1.03 -1.41,1.57c-1.32,0 -2.64,0 -4,0c0,1.32 0,2.64 0,4c-0.66,0 -1.32,0 -2,0c-0.06,0.72 -0.12,1.44 -0.19,2.19c-1.05,3.66 -3.02,5.3 -5.81,7.81c-0.99,-0.33 -1.98,-0.66 -3,-1c2.18,-6.72 3.71,-10.35 10,-14c1.67,-1.81 3.19,-3.67 4.7,-5.61c0.43,-0.46 0.86,-0.92 1.3,-1.39c0.66,0 1.32,0 2,0c0.33,-1.65 0.66,-3.3 1,-5z" fill="#8E1B3D" id="svg_45" transform="translate(236,223)"/>
  <path d="m0,0c0,1.65 0,3.3 0,5c-0.66,0 -1.32,0 -2,0c0,1.65 0,3.3 0,5c-0.99,0.33 -1.98,0.66 -3,1c-0.73,2.02 -0.73,2.02 -1,4c-0.76,0.06 -1.53,0.12 -2.31,0.19c-2.92,0.58 -2.92,0.58 -4.5,3.37c-0.59,1.21 -0.59,1.21 -1.19,2.44c-1.13,-1.75 -1.13,-1.75 -2,-4c0.5,-2.12 0.5,-2.12 2,-4c3.12,-1.25 3.12,-1.25 6,-2c-0.33,-0.66 -0.66,-1.32 -1,-2c-0.33,-0.66 -0.66,-1.32 -1,-2c1.32,-1.32 2.64,-2.64 4,-4c-1.32,-0.33 -2.64,-0.66 -4,-1c0,-0.66 0,-1.32 0,-2c6.62,-1.13 6.62,-1.13 10,0z" fill="#BB2029" id="svg_46" transform="translate(241,213)"/>
  <path d="m0,0c1.2,3.53 0.8,6.13 0.06,9.75c-0.19,0.98 -0.39,1.97 -0.59,2.98c-0.15,0.75 -0.31,1.5 -0.47,2.27c-0.99,0 -1.98,0 -3,0c-2.97,5.45 -2.97,5.45 -6,11c-0.66,0 -1.32,0 -2,0c-0.33,1.65 -0.66,3.3 -1,5c-0.66,-0.33 -1.32,-0.66 -2,-1c2.85,-9.49 6.66,-18.32 13,-26c0.71,-1.31 1.39,-2.64 2,-4z" fill="#292B88" id="svg_47" transform="translate(179,230)"/>
  <path d="m0,0c0.66,0 1.32,0 2,0c0.18,0.57 0.36,1.14 0.55,1.72c1.59,4.89 3.35,9.59 5.45,14.28c-3,1 -3,1 -7,1c-0.33,2.97 -0.66,5.94 -1,9c-0.33,0 -0.66,0 -1,0c-1.69,-8.21 -1.33,-16.74 0,-25c0.33,-0.33 0.66,-0.66 1,-1z" fill="#E34168" id="svg_48" transform="translate(177,245)"/>
  <path d="m0,0c0.66,0 1.32,0 2,0c0.79,10.97 0.79,10.97 -2.25,14.94c-1.36,1.02 -1.36,1.02 -2.75,2.06c-3.69,3.89 -4.58,6.66 -5,12c-0.33,0 -0.66,0 -1,0c-0.05,-1.9 -0.09,-3.79 -0.13,-5.69c-0.02,-1.05 -0.04,-2.11 -0.07,-3.2c0.27,-4.18 1.05,-7.03 4.14,-9.92c2.9,-3.08 3.73,-6.19 5.06,-10.19z" fill="#2A619D" id="svg_49" transform="translate(172,255)"/>
  <path d="m0,0c1.32,0.33 2.64,0.66 4,1c0.33,1.65 0.66,3.3 1,5c-1.09,0.21 -2.19,0.41 -3.31,0.63c-3.86,1.03 -3.86,1.03 -5.63,4.25c-1.27,3.2 -1.27,3.2 -1.06,7.12c-0.6,0.21 -1.2,0.41 -1.81,0.63c-2.98,1.87 -3.67,4.26 -5.19,7.37c-0.99,0.33 -1.98,0.66 -3,1c1.17,-5.11 2.95,-8.86 5.88,-13.2c1.29,-1.91 1.29,-1.91 2.12,-4.8c0.66,0 1.32,0 2,0c0.27,-0.74 0.54,-1.49 0.81,-2.25c1.13,-2.62 2.4,-4.55 4.19,-6.75z" fill="#EB3921" id="svg_50" transform="translate(202,198)"/>
  <path d="m0,0c1.79,2.22 3.01,4.02 4.31,6.5c0.35,0.63 0.69,1.27 1.05,1.92c2.56,4.93 3.82,8.95 3.64,14.58c-1.01,2.24 -1.01,2.24 -2,4c-0.33,0 -0.66,0 -1,0c0.02,-0.76 0.05,-1.52 0.07,-2.3c0.02,-0.99 0.04,-1.99 0.06,-3.01c0.02,-0.99 0.04,-1.97 0.07,-2.99c0.01,-2.92 0.01,-2.92 -2.2,-5.7c0,-1.32 0,-2.64 0,-4c-1.32,-0.33 -2.64,-0.66 -4,-1c-0.33,-1.32 -0.66,-2.64 -1,-4c-0.93,0 -1.86,0 -2.81,0c-2.07,0 -4.13,0 -6.19,0c-0.99,0.5 -0.99,0.5 -2,1c0.95,-2.37 1.69,-3.77 3.75,-5.31c3.2,-0.98 5.04,-0.66 8.25,0.31z" fill="#BA4234" id="svg_51" transform="translate(290,300)"/>
  <path d="m0,0c0.87,0.6 1.74,1.2 2.64,1.82c2.82,1.71 5.51,2.69 8.67,3.62c-4.34,1.45 -6.15,0.4 -10.25,-1.56c-0.9,-0.48 -1.81,-0.95 -2.75,-1.44c0,-0.66 0,-1.32 0,-2c-1.32,0 -2.64,0 -4,0c0,-0.66 0,-1.32 0,-2c-1.98,0 -3.96,0 -6,0c0,-0.66 0,-1.32 0,-2c-3.3,0 -6.6,0 -10,0c0.33,0.66 0.66,1.32 1,2c-3.63,-0.33 -7.26,-0.66 -11,-1c0,-0.66 0,-1.32 0,-2c11.71,-4.08 21.45,-2.08 31.69,4.56z" fill="#873C2D" id="svg_52" transform="translate(268.6875,156.5625)"/>
  <path d="m0,0c1.06,1.81 1.06,1.81 2,4c-1.19,3.56 -2.28,4.2 -5.25,6.38c-3.56,2.67 -6.71,5.38 -9.75,8.62c-0.99,-0.33 -1.98,-0.66 -3,-1c-0.33,-0.99 -0.66,-1.98 -1,-3c0.57,-0.23 1.13,-0.45 1.71,-0.68c2.93,-1.69 4.67,-3.81 6.85,-6.38c4.11,-4.83 4.11,-4.83 7.44,-5.94c0.33,-0.66 0.66,-1.32 1,-2z" fill="#18426F" id="svg_53" transform="translate(185,281)"/>
  <path d="m0,0c0.33,0.99 0.66,1.98 1,3c0.99,0.33 1.98,0.66 3,1c0,0.66 0,1.32 0,2c0.66,0 1.32,0 2,0c0.66,1.65 1.32,3.3 2,5c0.33,-2.97 0.66,-5.94 1,-9c1,4 1,4 1.44,7.44c0.5,3.19 1.36,5.59 2.56,8.56c0,1.32 0,2.64 0,4c0.66,0 1.32,0 2,0c0.31,0.8 0.62,1.61 0.94,2.44c0.82,2.45 0.82,2.45 2.06,3.56c0.04,1.67 0.04,3.33 0,5c-5.46,-7.11 -10.06,-14.69 -13.86,-22.81c-1.08,-2.26 -1.08,-2.26 -2.78,-4.23c-1.36,-1.96 -1.36,-1.96 -1.36,-5.96z" fill="#B01E4F" id="svg_54" transform="translate(252,214)"/>
  <path d="m0,0c8.8,2.1 8.8,2.1 12,5c1.75,5.12 1.66,10.19 -0.44,15.19c-0.51,0.93 -1.03,1.85 -1.56,2.81c-0.33,0 -0.66,0 -1,0c0.03,-1.39 0.03,-1.39 0.06,-2.81c0.1,-3.21 0.1,-3.21 -1.06,-6.19c0,-0.99 0,-1.98 0,-3c-0.66,-0.33 -1.32,-0.66 -2,-1c-0.62,-3.06 -0.62,-3.06 -1,-6c-1.65,-0.33 -3.3,-0.66 -5,-1c0,-0.99 0,-1.98 0,-3z" fill="#5C0332" id="svg_55" transform="translate(234,194)"/>
  <path d="m0,0c5.5,3 5.5,3 7,6c-3.37,-0.55 -5.08,-1.05 -8,-3c-2.56,0.33 -2.56,0.33 -5,1c-0.66,0 -1.32,0 -2,0c-0.33,0.99 -0.66,1.98 -1,3c-1.66,1.01 -3.33,2.01 -5,3c-1.7,1.63 -3.38,3.29 -5,5c-0.66,-0.33 -1.32,-0.66 -2,-1c2.64,-4.2 5.33,-7.6 9,-11c0.6,-0.6 1.2,-1.2 1.81,-1.81c3.34,-1.81 6.54,-1.84 10.19,-1.19z" fill="#5D133A" id="svg_56" transform="translate(278,288)"/>
  <path d="m0,0c5.18,5.18 6.28,14.58 6.5,21.63c-0.18,6.31 -1.93,11.64 -4.5,17.37c-0.33,0 -0.66,0 -1,0c-0.12,-5.75 -0.12,-5.75 1,-8c0.13,-2.87 0.19,-5.7 0.19,-8.56c0,-0.82 0,-1.63 0,-2.48c-0.05,-5.6 -0.69,-10.54 -2.19,-15.96c0,-1.32 0,-2.64 0,-4z" fill="#BF4939" id="svg_57" transform="translate(358,323)"/>
  <path d="m0,0c4.83,-0.48 8.65,-0.82 12.56,2.38c2.44,2.62 2.44,2.62 2.44,4.62c0.99,0.33 1.98,0.66 3,1c-0.99,0.49 -0.99,0.49 -2,1c-1.8,-0.74 -1.8,-0.74 -3.87,-1.87c-2.71,-1.47 -5.11,-2.49 -8.13,-3.13c0.34,1.36 0.34,1.36 0.69,2.75c0.31,3.25 0.31,3.25 -1.13,5.63c-0.51,0.53 -1.03,1.07 -1.56,1.62c-2.28,-3.42 -2.22,-4.68 -2.13,-8.69c0.02,-0.99 0.04,-1.99 0.06,-3.01c0.02,-0.76 0.05,-1.52 0.07,-2.3z" fill="#F64153" id="svg_58" transform="translate(177,261)"/>
  <path d="m0,0c3.88,1.47 5.01,3.45 7,7c0.77,0.71 0.77,0.71 1.56,1.44c1.44,1.56 1.44,1.56 2.38,4.62c0.77,3.05 0.77,3.05 3.19,4.32c0.92,0.3 0.92,0.3 1.87,0.62c0,2.64 0,5.28 0,8c0.66,0 1.32,0 2,0c0,0.66 0,1.32 0,2c-0.99,0 -1.98,0 -3,0c-0.28,-0.5 -0.55,-1.01 -0.84,-1.53c-1.28,-2.32 -2.56,-4.65 -3.85,-6.97c-0.43,-0.79 -0.87,-1.58 -1.32,-2.4c-2.54,-4.6 -5.19,-9.09 -8.08,-13.49c-0.91,-1.61 -0.91,-1.61 -0.91,-3.61z" fill="#D4473B" id="svg_59" transform="translate(293,287)"/>
  <path d="m0,0c7.09,-0.1 13.98,-0.1 21,1c0,0.33 0,0.66 0,1c-1.67,0.43 -1.67,0.43 -3.37,0.88c-3.63,0.81 -3.63,0.81 -5.63,3.12c-2.62,0.13 -2.62,0.13 -5,0c-0.23,0.62 -0.45,1.24 -0.69,1.88c-1.69,2.73 -3.3,3.17 -6.31,4.12c0.49,-0.93 0.99,-1.86 1.5,-2.81c1.71,-3.06 1.71,-3.06 1.5,-6.19c-1.44,-1.69 -1.44,-1.69 -3,-3z" fill="#461536" id="svg_60" transform="translate(254,286)"/>
  <path d="m0,0c0.33,0.66 0.66,1.32 1,2c0.66,0 1.32,0 2,0c0.33,-0.66 0.66,-1.32 1,-2c0.66,0 1.32,0 2,0c-0.45,1.22 -0.91,2.43 -1.37,3.69c-2.02,5.97 -2.81,12.08 -3.63,18.31c-0.66,-0.33 -1.32,-0.66 -2,-1c0,-1.32 0,-2.64 0,-4c-0.66,0 -1.32,0 -2,0c-0.69,-2.25 -0.69,-2.25 -1,-5c0.45,-0.6 0.91,-1.2 1.37,-1.81c2.42,-3.25 2.3,-6.19 2.63,-10.19z" fill="#FC733A" id="svg_61" transform="translate(259,203)"/>
  <path d="m0,0c8.76,0.25 16.09,1.08 24,5c0,0.33 0,0.66 0,1c-2.75,0.05 -5.5,0.09 -8.25,0.13c-0.78,0.01 -1.55,0.03 -2.36,0.05c-7.11,0.06 -7.11,0.06 -10.39,-2.18c-0.99,-0.66 -1.98,-1.32 -3,-2c0,-0.66 0,-1.32 0,-2z" fill="#F56A31" id="svg_62" transform="translate(211,280)"/>
  <path d="m0,0c2,1 2,1 3.19,3.31c0.91,3.01 0.92,3.81 -0.19,6.69c-2,2.54 -2,2.54 -4.44,5.19c-0.8,0.88 -1.6,1.76 -2.43,2.67c-2.13,2.14 -2.13,2.14 -4.13,3.14c-0.99,-1.32 -1.98,-2.64 -3,-4c0.99,0 1.98,0 3,0c0.25,-0.56 0.5,-1.11 0.75,-1.69c1.47,-2.71 3.29,-4.93 5.25,-7.31c2.15,-3.23 2.2,-4.28 2,-8z" fill="#2C80A2" id="svg_63" transform="translate(176,271)"/>
  <path d="m0,0c0.99,0.66 1.98,1.32 3,2c-0.33,3.63 -0.66,7.26 -1,11c-0.99,0 -1.98,0 -3,0c0,0.66 0,1.32 0,2c-1.32,-0.33 -2.64,-0.66 -4,-1c-0.99,-2.64 -1.22,-4.41 -0.25,-7.08c2.77,-5.68 2.77,-5.68 5.25,-6.92z" fill="#FA852C" id="svg_64" transform="translate(294,314)"/>
  <path d="m0,0c0,0.66 0,1.32 0,2c0.66,0 1.32,0 2,0c0,1.32 0,2.64 0,4c-2.64,1.32 -4.68,1.1 -7.63,1.06c-1,-0.01 -2,-0.02 -3.03,-0.02c-0.77,-0.02 -1.55,-0.03 -2.34,-0.04c-0.33,-0.66 -0.66,-1.32 -1,-2c6.39,-6.74 6.39,-6.74 12,-5z" fill="#2601EF" id="svg_65" transform="translate(151,361)"/>
  <path d="m0,0c0.66,0 1.32,0 2,0c0,7.07 -2.33,10.2 -7.09,15.31c-1.91,1.69 -1.91,1.69 -3.91,1.69c0,-1.98 0,-3.96 0,-6c0.66,0 1.32,0 2,0c0,-1.32 0,-2.64 0,-4c1.87,-2.25 1.87,-2.25 4,-4c0.66,0 1.32,0 2,0c0.33,-0.99 0.66,-1.98 1,-3z" fill="#38AFD5" id="svg_66" transform="translate(173,269)"/>
  <path d="m0,0c0.33,0 0.66,0 1,0c0,6.27 0,12.54 0,19c-0.66,0 -1.32,0 -2,0c-0.27,1.05 -0.54,2.1 -0.81,3.19c-1.06,3.4 -2.1,5.94 -4.19,8.81c-0.66,0 -1.32,0 -2,0c0.31,-4.64 1.36,-7.95 3.44,-12.12c2.94,-6.12 3.85,-12.17 4.56,-18.88z" fill="#DB7747" id="svg_67" transform="translate(261,186)"/>
  <path d="m0,0c0.33,0 0.66,0 1,0c0.05,0.87 0.1,1.74 0.15,2.63c0.07,1.16 0.15,2.31 0.23,3.5c0.1,1.7 0.1,1.7 0.21,3.44c0.41,3.39 1.28,6.22 2.41,9.43c0.13,2.88 0.13,2.88 0,5c-1.81,-0.12 -1.81,-0.12 -4,-1c-3,-4.55 -3.54,-8.7 -4,-14c0.99,0.99 1.98,1.98 3,3c0.33,-3.96 0.66,-7.92 1,-12z" fill="#7D1A36" id="svg_68" transform="translate(182,233)"/>
  <path d="m0,0c0.33,0.66 0.66,1.32 1,2c-0.33,0.66 -0.66,1.32 -1,2c0.66,0.33 1.32,0.66 2,1c0.75,1.94 0.75,1.94 1,4c-0.66,0.66 -1.32,1.32 -2,2c-0.33,0.99 -0.66,1.98 -1,3c-2.06,0.69 -2.06,0.69 -4,1c-0.66,-3.36 -1.15,-6.57 -1,-10c2.44,-3.12 2.44,-3.12 5,-5z" fill="#B4095F" id="svg_69" transform="translate(270,210)"/>
  <path d="m0,0c3.08,2.67 4.8,5.88 6.75,9.44c0.63,1.13 1.27,2.26 1.92,3.43c1.33,3.13 1.33,3.13 1.03,5.54c-0.23,0.52 -0.46,1.05 -0.7,1.59c-1.65,0 -3.3,0 -5,0c-0.14,-0.89 -0.29,-1.77 -0.44,-2.69c-0.99,-5.81 -2.27,-11.55 -3.56,-17.31z" fill="#C43C7B" id="svg_70" transform="translate(278,168)"/>
  <path d="m0,0c3.08,0.93 5.72,1.82 8.44,3.56c3.16,1.78 5.97,2.09 9.56,2.44c0,0.66 0,1.32 0,2c1.98,0 3.96,0 6,0c0,0.66 0,1.32 0,2c2.97,0.33 5.94,0.66 9,1c0,0.33 0,0.66 0,1c-6.01,0.24 -10.89,-0.49 -16.62,-2.25c-0.73,-0.2 -1.45,-0.41 -2.2,-0.62c-5.86,-1.75 -10.68,-3.89 -14.18,-9.13z" fill="#D13C45" id="svg_71" transform="translate(180,275)"/>
  <path d="m0,0c0.66,0.33 1.32,0.66 2,1c-1.6,4.72 -4.2,8.49 -7,12.56c-0.9,1.31 -1.79,2.63 -2.69,3.94c-0.39,0.58 -0.79,1.16 -1.2,1.75c-1.18,1.77 -1.18,1.77 -2.09,3.92c-1.02,1.83 -1.02,1.83 -3.65,2.58c-0.78,0.08 -1.56,0.16 -2.37,0.25c2,-3 4,-6 6,-9c0.31,-0.66 0.62,-1.32 0.94,-2c1.11,-2.1 2.35,-3.36 4.06,-5c0.66,-0.99 1.32,-1.98 2,-3c0.66,-0.99 1.32,-1.98 2,-3c0.68,-1.33 1.35,-2.66 2,-4z" fill="#240B24" id="svg_72" transform="translate(207,183)"/>
  <path d="m0,0c3.26,3.85 4.94,7.6 5.06,12.69c-1.06,2.31 -1.06,2.31 -4.56,4.06c-1.16,0.41 -2.31,0.82 -3.5,1.25c-0.33,0.33 -0.66,0.66 -1,1c-1.67,0.04 -3.33,0.04 -5,0c1.63,-1.79 2.82,-2.92 5.06,-3.87c2.09,-1.01 2.09,-1.01 3.19,-3.19c1.02,-4.01 0.91,-7.83 0.75,-11.94z" fill="#A41375" id="svg_73" transform="translate(290,190)"/>
  <path d="m0,0c1.94,0.38 1.94,0.38 4,1c0.33,0.66 0.66,1.32 1,2c2.53,0.66 2.53,0.66 5,1c-0.66,1.98 -1.32,3.96 -2,6c0.66,0.33 1.32,0.66 2,1c0.59,2.65 0.74,5.29 1,8c-3.25,-2.78 -5.12,-6.39 -7.19,-10.06c-0.37,-0.64 -0.73,-1.28 -1.11,-1.93c-2.7,-4.75 -2.7,-4.75 -2.7,-7.01z" fill="#DD5434" id="svg_74" transform="translate(310,316)"/>
  <path d="m0,0c1.98,0.66 3.96,1.32 6,2c0,0.66 0,1.32 0,2c2.31,0 4.62,0 7,0c0,0.99 0,1.98 0,3c-0.99,0 -1.98,0 -3,0c-1.68,0.98 -3.34,1.98 -5,3c-0.66,0 -1.32,0 -2,0c0,-0.99 0,-1.98 0,-3c-0.99,0 -1.98,0 -3,0c0,-2.31 0,-4.62 0,-7z" fill="#B50B6C" id="svg_75" transform="translate(267,204)"/>
  <path d="m0,0c1,3 1,3 0.13,5c-0.38,0.66 -0.75,1.32 -1.13,2c-0.33,0.99 -0.66,1.98 -1,3c0.66,0 1.32,0 2,0c-0.33,0.99 -0.66,1.98 -1,3c-2.97,-2.31 -5.94,-4.62 -9,-7c0.66,-1.32 1.32,-2.64 2,-4c0.99,0.33 1.98,0.66 3,1c2.68,-1.37 2.68,-1.37 5,-3z" fill="#9F1D35" id="svg_76" transform="translate(204,259)"/>
  <path d="m0,0c0.99,0.33 1.98,0.66 3,1c-0.08,1.24 -0.17,2.48 -0.25,3.75c-0.01,3.23 0.09,4.03 2.06,6.75c2.16,1.78 2.16,1.78 5.19,1.5c-0.66,1.32 -1.32,2.64 -2,4c-0.99,0 -1.98,0 -3,0c-4.99,-5.59 -6.35,-8.68 -6,-16c0.33,-0.33 0.66,-0.66 1,-1z" fill="#E36A29" id="svg_77" transform="translate(333,348)"/>
  <path d="m0,0c0,0.99 0,1.98 0,3c0.99,0.33 1.98,0.66 3,1c-0.66,0.66 -1.32,1.32 -2,2c-0.7,1.32 -1.37,2.65 -2,4c-0.66,-0.66 -1.32,-1.32 -2,-2c-0.99,0 -1.98,0 -3,0c-0.33,2.97 -0.66,5.94 -1,9c-0.33,0 -0.66,0 -1,0c-0.86,-10.75 -0.86,-10.75 2.31,-14.69c2.69,-2.31 2.69,-2.31 5.69,-2.31z" fill="#170A58" id="svg_78" transform="translate(136,332)"/>
  <path d="m0,0c2.31,-0.25 2.31,-0.25 5,0c1.98,2.04 3,3.12 3,6c-0.66,0.05 -1.33,0.1 -2.01,0.15c-6.7,0.56 -6.7,0.56 -12.99,2.85c-0.99,0.49 -0.99,0.49 -2,1c1.49,-3.79 3.69,-5.68 7,-8c0.66,0 1.32,0 2,0c0,-0.66 0,-1.32 0,-2z" fill="#983239" id="svg_79" transform="translate(281,294)"/>
  <path d="m0,0c2,2 2,2 2,6c-3.2,2.14 -4.02,2.23 -7.69,2.13c-0.81,-0.02 -1.61,-0.04 -2.45,-0.06c-0.92,-0.03 -0.92,-0.03 -1.86,-0.07c-0.33,-1.65 -0.66,-3.3 -1,-5c0.89,0.06 1.77,0.12 2.69,0.19c3.65,-0.21 5.36,-1.11 8.31,-3.19z" fill="#F7625A" id="svg_80" transform="translate(277,168)"/>
  <path d="m0,0c0.66,0 1.32,0 2,0c0.66,0.99 1.32,1.98 2,3c1.01,0.33 2.02,0.66 3.06,1c1.46,0.5 1.46,0.5 2.94,1c0.33,0.99 0.66,1.98 1,3c-0.66,0.66 -1.32,1.32 -2,2c-4.06,-0.3 -7.59,-2.97 -11,-5c0.87,-3.87 0.87,-3.87 2,-5z" fill="#F8312D" id="svg_81" transform="translate(182,270)"/>
  <path d="m0,0c0.79,0.03 1.58,0.05 2.39,0.08c2.48,0.19 4.83,0.55 7.24,1.17c0.36,5.54 0.36,5.54 -1.5,7.88c-0.5,0.37 -1,0.74 -1.5,1.12c0,-1.98 0,-3.96 0,-6c-1.33,0 -2.65,0 -4,0c0,-0.66 0,-1.32 0,-2c-1.33,0 -2.65,0 -4.01,0c0,0.66 0,1.32 0,2c-2.96,-0.5 -2.96,-0.5 -6,-1c2.35,-2.84 3.72,-3.38 7.38,-3.25z" fill="#2003C2" id="svg_82" transform="translate(147.375,354.75)"/>
  <path d="m0,0c4.08,2.87 6.03,5.43 8,10c-0.99,0.66 -1.98,1.32 -3,2c-1.15,-0.93 -2.3,-1.87 -3.44,-2.81c-0.64,-0.52 -1.27,-1.05 -1.93,-1.58c-1.63,-1.61 -1.63,-1.61 -2.63,-4.61c0.99,-0.99 1.98,-1.98 3,-3z" fill="#B92C2E" id="svg_83" transform="translate(186,254)"/>
  <path d="m0,0c0.99,0.66 1.98,1.32 3,2c0.5,2.75 0.5,2.75 0,6c-2.43,3.41 -4.52,5.68 -8,8c-1.19,2.05 -1.19,2.05 -2,4c-1.32,0 -2.64,0 -4,0c-0.66,-1.65 -1.32,-3.3 -2,-5c1.98,0.99 1.98,0.99 4,2c5.61,-5.04 5.61,-5.04 10,-11c-0.23,-3.19 -0.23,-3.19 -1,-6z" fill="#2B6A92" id="svg_84" transform="translate(178,274)"/>
  <path d="m0,0c0.66,0 1.32,0 2,0c-0.33,6.6 -0.66,13.2 -1,20c-1.32,-1.32 -2.64,-2.64 -4,-4c0.01,-3.38 0.01,-3.38 0.69,-7.12c0.21,-1.25 0.42,-2.49 0.63,-3.76c0.68,-3.12 0.68,-3.12 1.68,-5.12z" fill="#4C1036" id="svg_86" transform="translate(181,226)"/>
  <path d="m0,0c0.33,0.99 0.66,1.98 1,3c-0.99,0.33 -1.98,0.66 -3,1c-0.73,2.02 -0.73,2.02 -1,4c-0.76,0.06 -1.53,0.12 -2.31,0.19c-2.92,0.58 -2.92,0.58 -4.5,3.37c-0.59,1.21 -0.59,1.21 -1.19,2.44c-1.13,-1.75 -1.13,-1.75 -2,-4c0.5,-2.12 0.5,-2.12 2,-4c1.99,-0.7 3.99,-1.37 6,-2c0.66,-0.99 1.32,-1.98 2,-3c0.99,-0.33 1.98,-0.66 3,-1z" fill="#B0212F" id="svg_87" transform="translate(238,220)"/>
  <path d="m0,0c1.71,1.63 2.93,2.87 4,5c0.04,2 0.04,4 0,6c-0.99,0 -1.98,0 -3,0c-0.33,2.97 -0.66,5.94 -1,9c-0.33,0 -0.66,0 -1,0c0,-5.28 0,-10.56 0,-16c0.66,0 1.32,0 2,0c-0.33,-1.32 -0.66,-2.64 -1,-4z" fill="#AE2D34" id="svg_88" transform="translate(262,166)"/>
  <path d="m0,0c1.96,0.23 3.92,0.48 5.88,0.75c1.09,0.14 2.18,0.28 3.3,0.42c0.93,0.28 1.86,0.55 2.82,0.83c0.66,1.32 1.32,2.64 2,4c-8.58,0 -17.16,0 -26,0c0,-0.33 0,-0.66 0,-1c10.39,-0.5 10.39,-0.5 21,-1c-2.97,-0.99 -5.94,-1.98 -9,-3c0,-0.33 0,-0.66 0,-1z" fill="#D25E3C" id="svg_89" transform="translate(225,281)"/>
  <path d="m0,0c0.33,0 0.66,0 1,0c0.33,2.97 0.66,5.94 1,9c-1.98,0.99 -1.98,0.99 -4,2c-1.02,1.99 -2.02,3.99 -3,6c-0.99,0.33 -1.98,0.66 -3,1c1.17,-5.11 2.95,-8.86 5.88,-13.2c1.29,-1.91 1.29,-1.91 2.12,-4.8z" fill="#EA531D" id="svg_90" transform="translate(195,207)"/>
  <path d="m0,0c0,3.93 -1.28,6.49 -3,10c-0.99,0.66 -1.98,1.32 -3,2c-0.8,2.65 -0.8,2.65 -1.19,5.63c-0.16,1 -0.31,2 -0.48,3.03c-0.11,0.77 -0.22,1.55 -0.33,2.34c-0.33,0 -0.66,0 -1,0c-0.05,-2.12 -0.09,-4.25 -0.13,-6.37c-0.02,-1.19 -0.04,-2.37 -0.07,-3.59c0.2,-3.04 0.2,-3.04 2.2,-5.04c0.99,0 1.98,0 3,0c0.1,-0.58 0.21,-1.16 0.31,-1.75c0.79,-2.57 2,-4.19 3.69,-6.25z" fill="#1D4A84" id="svg_91" transform="translate(171,256)"/>
  <path d="m0,0c4.66,3.07 5.85,5.59 7,11c-0.66,0 -1.32,0 -2,0c0,1.98 0,3.96 0,6c-1,-2 -1,-2 -2,-4c-0.34,-0.61 -0.68,-1.22 -1.03,-1.84c-1.07,-2.38 -1.37,-4.32 -1.59,-6.91c-0.08,-0.8 -0.15,-1.6 -0.23,-2.42c-0.05,-0.61 -0.1,-1.21 -0.15,-1.83z" fill="#72182B" id="svg_92" transform="translate(256,159)"/>
  <path d="m0,0c2.68,4.02 2.16,6.24 2,11c-0.62,0.12 -1.24,0.25 -1.87,0.38c-2.32,0.49 -2.32,0.49 -4.13,2.62c-0.13,-7.75 -0.13,-7.75 1,-10c0.99,0 1.98,0 3,0c0,-1.32 0,-2.64 0,-4z" fill="#D43533" id="svg_93" transform="translate(266,173)"/>
  <path d="m0,0c3.27,1.9 6.46,3.92 9.63,6c0.75,0.5 1.51,0.99 2.28,1.5c1.91,1.37 3.49,2.79 5.09,4.5c-6.45,-2.02 -12.33,-4.22 -18,-8c0.33,-1.32 0.66,-2.64 1,-4z" fill="#C03B39" id="svg_94" transform="translate(193,264)"/>
  <path d="m0,0c0.99,0.33 1.98,0.66 3,1c0,1.98 0,3.96 0,6c-0.99,-0.99 -1.98,-1.98 -3,-3c-0.33,0.99 -0.66,1.98 -1,3c-1.99,1.35 -3.99,2.69 -6,4c-0.99,1.48 -0.99,1.48 -2,3c-0.66,-0.33 -1.32,-0.66 -2,-1c0.92,-1.51 1.87,-3.01 2.81,-4.5c0.52,-0.84 1.05,-1.67 1.58,-2.53c0.53,-0.65 1.06,-1.3 1.61,-1.97c0.99,0 1.98,0 3,0c0.66,-1.32 1.32,-2.64 2,-4z" fill="#9B2331" id="svg_95" transform="translate(213,182)"/>
  <path d="m0,0c0.33,0 0.66,0 1,0c0.94,6.3 1.01,10.85 -1,17c-0.17,3.29 -0.17,3.29 0,6c-3.25,-5.41 -2.72,-12.3 -1.55,-18.34c0.45,-1.57 0.99,-3.12 1.55,-4.66z" fill="#FA4A1C" id="svg_96" transform="translate(186,225)"/>
  <path d="m0,0c0,0.66 0,1.32 0,2c-0.66,0 -1.32,0 -2,0c-0.08,0.59 -0.16,1.19 -0.25,1.8c-0.98,2.88 -2.34,3.72 -4.81,5.45c-0.74,0.52 -1.47,1.04 -2.23,1.58c-0.56,0.38 -1.13,0.77 -1.71,1.17c-0.66,-0.33 -1.32,-0.66 -2,-1c1.59,-1.84 3.2,-3.67 4.81,-5.5c0.45,-0.52 0.91,-1.05 1.37,-1.59c3.48,-3.91 3.48,-3.91 6.82,-3.91z" fill="#194D77" id="svg_97" transform="translate(184,284)"/>
  <path d="m0,0c0.66,0.33 1.32,0.66 2,1c-0.99,0.66 -1.98,1.32 -3,2c0.33,-0.99 0.66,-1.98 1,-3zm-4,3c0.99,0.33 1.98,0.66 3,1c-1.29,1.38 -2.63,2.71 -4,4c-0.66,0 -1.32,0 -2,0c0,1.65 0,3.3 0,5c-1.65,0 -3.3,0 -5,0c0,-3 0,-3 1.64,-4.86c0.72,-0.62 1.44,-1.25 2.17,-1.89c0.71,-0.63 1.42,-1.27 2.15,-1.92c0.67,-0.44 1.35,-0.88 2.04,-1.33z" fill="#852B36" id="svg_98" transform="translate(247,317)"/>
  <path d="m0,0c2,1 2,1 3,2.94c1.4,4.28 2.19,8.64 3,13.06c-0.99,0.33 -1.98,0.66 -3,1c-0.33,-1.98 -0.66,-3.96 -1,-6c-0.99,-0.33 -1.98,-0.66 -3,-1c0.99,-0.33 1.98,-0.66 3,-1c-0.66,-2.97 -1.32,-5.94 -2,-9z" fill="#700F61" id="svg_99" transform="translate(294,198)"/>
  <path d="m0,0c0.33,0 0.66,0 1,0c-0.11,3.46 -0.24,6.92 -0.37,10.38c-0.04,0.98 -0.07,1.96 -0.1,2.98c-0.04,0.94 -0.08,1.88 -0.12,2.85c-0.04,1.3 -0.04,1.3 -0.09,2.64c-0.32,2.15 -0.32,2.15 -2.32,4.15c0,-1.65 0,-3.3 0,-5c-0.66,0 -1.32,0 -2,0c0.33,-1.65 0.66,-3.3 1,-5c0.66,0 1.32,0 2,0c-0.02,-1.22 -0.04,-2.43 -0.06,-3.69c-0.01,-3.23 0.27,-6.16 1.06,-9.31z" fill="#F54D4B" id="svg_100" transform="translate(268,179)"/>
  <path d="m0,0c0.99,0.49 0.99,0.49 2,1c-0.99,0.5 -0.99,0.5 -2,1c0,-0.66 0,-1.32 0,-2zm-1,2c0.33,0.66 0.66,1.32 1,2c-1.65,1.65 -3.3,3.3 -5,5c4.29,0.33 8.58,0.66 13,1c0,0.33 0,0.66 0,1c-5.28,0 -10.56,0 -16,0c0,-4 0,-4 1.81,-6.19c2.19,-1.81 2.19,-1.81 5.19,-2.81z" fill="#73293B" id="svg_101" transform="translate(240,320)"/>
  <path d="m0,0c0.66,0.33 1.32,0.66 2,1c-2.31,2.64 -4.62,5.28 -7,8c3.63,0.33 7.26,0.66 11,1c0,0.33 0,0.66 0,1c-4.62,0 -9.24,0 -14,0c1.12,-5.62 1.12,-5.62 4.56,-8.31c0.64,-0.51 1.28,-1.03 1.94,-1.55c0.5,-0.38 0.99,-0.75 1.5,-1.14z" fill="#480E39" id="svg_102" transform="translate(226,320)"/>
  <path d="m0,0c0.99,0.49 0.99,0.49 2,1c0,0.66 0,1.32 0,2c0.66,0 1.32,0 2,0c0.84,1.79 1.67,3.58 2.5,5.38c0.46,0.99 0.93,1.99 1.41,3.02c1.09,2.6 1.09,2.6 1.09,4.6c-1.98,-0.66 -3.96,-1.32 -6,-2c0.19,-0.6 0.37,-1.2 0.56,-1.81c0.66,-2.35 0.66,-2.35 -0.56,-5.19c-0.66,0 -1.32,0 -2,0c-0.33,-2.31 -0.66,-4.62 -1,-7z" fill="#AD134A" id="svg_103" transform="translate(336,282)"/>
  <path d="m0,0c0.99,0 1.98,0 3,0c-1.7,4.73 -4.14,8.96 -6.63,13.31c-0.42,0.74 -0.84,1.48 -1.27,2.25c-1.03,1.81 -2.06,3.63 -3.1,5.44c-1.21,-3.62 -0.54,-4.64 1,-8c0.66,0 1.32,0 2,0c0,-1.32 0,-2.64 0,-4c0.66,0 1.32,0 2,0c0.33,-1.65 0.66,-3.3 1,-5c0.66,0 1.32,0 2,0c0,-1.32 0,-2.64 0,-4z" fill="#5E1740" id="svg_104" transform="translate(228,236)"/>
  <path d="m0,0c0.66,0 1.32,0 2,0c-0.33,0.99 -0.66,1.98 -1,3c0.66,0.33 1.32,0.66 2,1c0,0.99 0,1.98 0,3c-0.66,0 -1.32,0 -2,0c0,3.63 0,7.26 0,11c-2.48,-3.71 -2.24,-5.71 -2.19,-10.12c0.01,-1.27 0.02,-2.53 0.02,-3.83c0.17,-3.05 0.17,-3.05 1.17,-4.05z" fill="#1A0985" id="svg_105" transform="translate(130,339)"/>
  <path d="m0,0c0.66,0 1.32,0 2,0c0,0.99 0,1.98 0,3c0.66,0.33 1.32,0.66 2,1c0.99,0.66 1.98,1.32 3,2c-0.33,1.65 -0.66,3.3 -1,5c-0.99,0 -1.98,0 -3,0c-2.15,-3.86 -3.39,-6.55 -3,-11z" fill="#E65F2E" id="svg_106" transform="translate(321,332)"/>
  <path d="m0,0c-0.65,1.34 -1.32,2.67 -2,4c-0.41,0.91 -0.83,1.82 -1.25,2.75c-0.58,0.74 -1.16,1.48 -1.75,2.25c-3.19,0.31 -3.19,0.31 -6,0c6.75,-9 6.75,-9 11,-9z" fill="#5E0F3A" id="svg_107" transform="translate(231,321)"/>
  <path d="m0,0c0.33,0 0.66,0 1,0c0,7.15 -2.39,10.22 -7.29,15.31c-0.84,0.84 -0.84,0.84 -1.71,1.69c-0.61,-1.88 -0.61,-1.88 -1,-4c1.69,-1.87 1.69,-1.87 4,-4c2.15,-3.01 3.83,-5.49 5,-9z" fill="#49CBEC" id="svg_108" transform="translate(174,269)"/>
  <path d="m0,0c1.98,0 3.96,0 6,0c-0.33,2.31 -0.66,4.62 -1,7c0.99,0.33 1.98,0.66 3,1c-1.65,0.33 -3.3,0.66 -5,1c-0.33,-1.65 -0.66,-3.3 -1,-5c-0.66,0 -1.32,0 -2,0c0,-1.32 0,-2.64 0,-4z" fill="#CA0A57" id="svg_109" transform="translate(265,232)"/>
  <path d="m0,0c1.9,1.9 2.76,3.26 3.95,5.63c0.35,0.7 0.7,1.41 1.07,2.14c0.55,1.1 0.55,1.1 1.11,2.23c0.37,0.74 0.74,1.47 1.12,2.23c2.75,5.52 2.75,5.52 2.75,7.77c-2.92,-1.03 -3.83,-1.65 -5.2,-4.5c-0.3,-0.97 -0.61,-1.94 -0.92,-2.94c-1.07,-3.31 -1.94,-5.64 -3.88,-8.56c0,-1.32 0,-2.64 0,-4z" fill="#4C1155" id="svg_110" transform="translate(298,206)"/>
  <path d="m0,0c2,1 2,1 2.75,2.81c0.32,2.79 -0.45,3.72 -1.75,6.19c-0.54,2.06 -1,4.12 -1.44,6.2c-0.56,1.8 -0.56,1.8 -2.56,3.8c0.31,-2.98 0.62,-5.96 0.94,-8.94c0.08,-0.85 0.17,-1.7 0.26,-2.57c0.09,-0.81 0.18,-1.62 0.26,-2.45c0.08,-0.75 0.16,-1.5 0.24,-2.27c0.3,-1.77 0.3,-1.77 1.3,-2.77z" fill="#E53D77" id="svg_111" transform="translate(269,187)"/>
  <path d="m0,0c1.32,0.66 2.64,1.32 4,2c-0.99,1.48 -0.99,1.48 -2,3c-2.8,0.34 -2.8,0.34 -6.32,0.29c-1.26,-0.01 -2.51,-0.02 -3.81,-0.03c-1.32,-0.02 -2.64,-0.05 -4,-0.07c-1.33,-0.02 -2.67,-0.03 -4.01,-0.04c-3.29,-0.04 -6.57,-0.09 -9.86,-0.15c0,-0.33 0,-0.66 0,-1c8.91,0 17.82,0 27,0c-0.33,-1.32 -0.66,-2.64 -1,-4z" fill="#DE753D" id="svg_112" transform="translate(292,325)"/>
  <path d="m0,0c0.66,0.33 1.32,0.66 2,1c-1.98,1.65 -3.96,3.3 -6,5c1.32,0.66 2.64,1.32 4,2c-2.97,0 -5.94,0 -9,0c-0.33,-0.66 -0.66,-1.32 -1,-2c1.1,-0.82 2.21,-1.63 3.31,-2.44c0.62,-0.45 1.23,-0.9 1.87,-1.37c1.82,-1.19 1.82,-1.19 4.82,-2.19z" fill="#B64037" id="svg_113" transform="translate(256,322)"/>
  <path d="m0,0c0.66,0 1.32,0 2,0c2.92,5.49 3.74,9.9 2,16c-0.66,0.33 -1.32,0.66 -2,1c0.02,-0.76 0.05,-1.52 0.07,-2.3c0.02,-0.99 0.04,-1.99 0.06,-3.01c0.02,-0.99 0.04,-1.97 0.07,-2.99c0.01,-2.92 0.01,-2.92 -2.2,-5.7c0,-0.99 0,-1.98 0,-3z" fill="#B2623B" id="svg_114" transform="translate(294,310)"/>
  <path d="m0,0c0.33,0.99 0.66,1.98 1,3c-0.99,0.33 -1.98,0.66 -3,1c-0.33,1.98 -0.66,3.96 -1,6c-1.32,-0.66 -2.64,-1.32 -4,-2c0.12,-1.75 0.12,-1.75 1,-4c3.06,-2.25 3.06,-2.25 6,-4z" fill="#72104C" id="svg_115" transform="translate(211,264)"/>
  <path d="m0,0c0.33,0.66 0.66,1.32 1,2c0.64,-0.19 1.28,-0.37 1.94,-0.56c1.02,-0.22 1.02,-0.22 2.06,-0.44c1,1 1,1 1.06,4.56c-0.02,1.14 -0.04,2.27 -0.06,3.44c-0.99,0 -1.98,0 -3,0c0,-0.99 0,-1.98 0,-3c-0.99,-0.33 -1.98,-0.66 -3,-1c-0.75,-2 -0.75,-2 -1,-4c0.33,-0.33 0.66,-0.66 1,-1z" fill="#FD3C3A" id="svg_116" transform="translate(181,264)"/>
  <path d="m0,0c0.99,3.96 0.91,5.78 0.19,9.69c-0.26,1.46 -0.26,1.46 -0.52,2.95c-0.22,0.78 -0.44,1.56 -0.67,2.36c-0.99,0.49 -0.99,0.49 -2,1c0,-1.65 0,-3.3 0,-5c-0.66,-0.33 -1.32,-0.66 -2,-1c1.65,-3.3 3.3,-6.6 5,-10z" fill="#482576" id="svg_117" transform="translate(179,230)"/>
  <path d="m0,0c1.94,0.69 1.94,0.69 4,2c0.94,2.38 0.94,2.38 1,5c-1.44,2.31 -1.44,2.31 -3,4c-2.68,-4.02 -2.16,-6.24 -2,-11z" fill="#ED3A43" id="svg_118" transform="translate(177,264)"/>
  <path d="m0,0c0.66,0 1.32,0 2,0c0.48,1.42 0.96,2.83 1.44,4.25c0.4,1.18 0.4,1.18 0.81,2.39c0.67,2.11 1.24,4.21 1.75,6.36c-0.99,-0.33 -1.98,-0.66 -3,-1c-0.33,-0.99 -0.66,-1.98 -1,-3c-0.99,-0.66 -1.98,-1.32 -3,-2c-0.25,-3.06 -0.25,-3.06 0,-6c0.33,-0.33 0.66,-0.66 1,-1z" fill="#BD2964" id="svg_119" transform="translate(177,245)"/>
  <path d="m0,0c0.66,0.33 1.32,0.66 2,1c0,0.66 0,1.32 0,2c0.66,0 1.32,0 2,0c0,0.99 0,1.98 0,3c0.66,0 1.32,0 2,0c0,2.31 0,4.62 0,7c-2.64,-3.18 -5.14,-6.29 -7,-10c0.33,-0.99 0.66,-1.98 1,-3z" fill="#AD184D" id="svg_120" transform="translate(271,246)"/>
  <path d="m0,0c2,3.75 2,3.75 2,6c-1.65,1.69 -3.31,3.35 -5,5c-0.33,0.66 -0.66,1.32 -1,2c-0.66,-0.33 -1.32,-0.66 -2,-1c0.99,-2.64 1.98,-5.28 3,-8c0.66,0 1.32,0 2,0c0.33,-1.32 0.66,-2.64 1,-4z" fill="#277EAE" id="svg_121" transform="translate(172,261)"/>
  <path d="m0,0c2.63,0.94 2.63,0.94 5,2c0,1.65 0,3.3 0,5c-0.66,-1.32 -1.32,-2.64 -2,-4c-0.33,0.66 -0.66,1.32 -1,2c-1.98,0.73 -3.98,1.4 -6,2c0,-3 0,-3 2,-6c0.66,-0.33 1.32,-0.66 2,-1z" fill="#2B0635" id="svg_122" transform="translate(218,170)"/>
  <path d="m0,0c4.46,0.99 4.46,0.99 9,2c-0.66,1.32 -1.32,2.64 -2,4c-0.99,-0.33 -1.98,-0.66 -3,-1c-2.64,0.39 -2.64,0.39 -5,1c-0.33,-0.66 -0.66,-1.32 -1,-2c0.99,-0.33 1.98,-0.66 3,-1c0.33,-0.66 0.66,-1.32 1,-2c-0.66,-0.33 -1.32,-0.66 -2,-1z" fill="#212353" id="svg_123" transform="translate(189,282)"/>
  <path d="m0,0c1.32,0.33 2.64,0.66 4,1c-0.33,0.66 -0.66,1.32 -1,2c-0.66,0 -1.32,0 -2,0c-0.82,0.99 -1.65,1.98 -2.5,3c-0.83,0.99 -1.65,1.98 -2.5,3c-0.66,0 -1.32,0 -2,0c0,1.32 0,2.64 0,4c-0.66,0 -1.32,0 -2,0c0.33,-1.65 0.66,-3.3 1,-5c0.99,-0.33 1.98,-0.66 3,-1c1.11,-1.88 1.11,-1.88 2,-4c0.66,-0.99 1.32,-1.98 2,-3z" fill="#3793BC" id="svg_124" transform="translate(172,267)"/>
  <path d="m0,0c0,0.99 0,1.98 0,3c-0.66,0 -1.32,0 -2,0c-0.25,0.58 -0.5,1.16 -0.75,1.75c-1.42,2.55 -3.13,4.27 -5.25,6.25c0.37,-6.37 0.37,-6.37 3.44,-9.44c2.56,-1.56 2.56,-1.56 4.56,-1.56z" fill="#9A1D3B" id="svg_125" transform="translate(227,236)"/>
  <path d="m0,0c1,3 1,3 0.19,5.06c-1.19,1.94 -1.19,1.94 -3.19,3.94c-0.99,-0.66 -1.98,-1.32 -3,-2c0.19,-1.81 0.19,-1.81 1,-4c2.56,-1.75 2.56,-1.75 5,-3z" fill="#951C42" id="svg_126" transform="translate(204,259)"/>
  <path d="m0,0c1.98,0.66 3.96,1.32 6,2c0,0.99 0,1.98 0,3c-2.5,1.69 -2.5,1.69 -5,3c-1,-1 -1,-1 -1.06,-4.56c0.02,-1.14 0.04,-2.27 0.06,-3.44z" fill="#CD1172" id="svg_127" transform="translate(267,204)"/>
  <path d="m0,0c0.33,0 0.66,0 1,0c0,6.27 0,12.54 0,19c-1.65,0 -3.3,0 -5,0c0.31,-0.93 0.31,-0.93 0.62,-1.87c1.83,-5.76 2.89,-11.11 3.38,-17.13z" fill="#D35E43" id="svg_128" transform="translate(261,186)"/>
  <path d="m0,0c2.49,1 3.77,1.65 5.25,3.94c0.75,2.06 0.75,2.06 0.75,5.06c0.66,0 1.32,0 2,0c0,1.65 0,3.3 0,5c-8,-9.43 -8,-9.43 -8,-14z" fill="#AB3738" id="svg_129" transform="translate(293,287)"/>
  <path d="m0,0c1.13,1.75 1.13,1.75 2,4c-0.87,1.94 -0.87,1.94 -2,4c-0.17,2.67 -0.17,2.67 0,5c-1.32,-0.66 -2.64,-1.32 -4,-2c0.37,-2.94 0.37,-2.94 1,-6c0.66,-0.33 1.32,-0.66 2,-1c0.65,-2.02 0.65,-2.02 1,-4z" fill="#480D3E" id="svg_130" transform="translate(212,263)"/>
  <path d="m0,0c0.33,0.99 0.66,1.98 1,3c0.99,0.33 1.98,0.66 3,1c0,0.66 0,1.32 0,2c0.66,0 1.32,0 2,0c2.13,4.63 2.13,4.63 1,8c-1.18,-1.57 -2.34,-3.16 -3.5,-4.75c-0.65,-0.88 -1.3,-1.76 -1.97,-2.67c-1.53,-2.58 -1.53,-2.58 -1.53,-6.58z" fill="#AF5439" id="svg_131" transform="translate(252,214)"/>
  <path d="m0,0c1.32,0 2.64,0 4,0c0,2.97 0,5.94 0,9c-0.99,0.33 -1.98,0.66 -3,1c-0.33,-3.3 -0.66,-6.6 -1,-10z" fill="#EC2844" id="svg_132" transform="translate(347,310)"/>
  <path d="m0,0c1.53,3.07 0.55,5.7 0,9c-0.66,0 -1.32,0 -2,0c-0.33,1.65 -0.66,3.3 -1,5c-0.66,-0.33 -1.32,-0.66 -2,-1c0.45,-1.42 0.91,-2.83 1.37,-4.25c0.39,-1.18 0.39,-1.18 0.78,-2.39c0.8,-2.23 1.75,-4.27 2.85,-6.36z" fill="#1E2971" id="svg_133" transform="translate(169,247)"/>
  <path d="m0,0c0.99,0.33 1.98,0.66 3,1c-0.11,1.46 -0.24,2.92 -0.37,4.38c-0.07,0.81 -0.14,1.62 -0.22,2.46c-0.41,2.16 -0.41,2.16 -2.41,4.16c0.02,-0.93 0.04,-1.86 0.06,-2.81c0.1,-3.21 0.1,-3.21 -1.06,-6.19c0.33,-0.99 0.66,-1.98 1,-3z" fill="#690C34" id="svg_134" transform="translate(243,205)"/>
  <path d="m0,0c2.16,2.16 2.72,3.52 3.69,6.38c0.27,0.77 0.54,1.54 0.82,2.33c0.53,2.49 0.3,3.91 -0.51,6.29c0,-0.66 0,-1.32 0,-2c-0.66,0 -1.32,0 -2,0c-0.34,-1.42 -0.67,-2.83 -1,-4.25c-0.19,-0.79 -0.37,-1.58 -0.56,-2.39c-0.44,-2.36 -0.44,-2.36 -0.44,-6.36z" fill="#A8343C" id="svg_135" transform="translate(358,323)"/>
  <path d="m0,0c4.46,0.99 4.46,0.99 9,2c0,0.66 0,1.32 0,2c0.99,0.66 1.98,1.32 3,2c-2.64,0 -5.28,0 -8,0c-0.33,-1.32 -0.66,-2.64 -1,-4c-0.99,0 -1.98,0 -3,0c0,-0.66 0,-1.32 0,-2z" fill="#FA512F" id="svg_136" transform="translate(206,280)"/>
  <path d="m0,0c1.98,0.66 3.96,1.32 6,2c0.33,3.63 0.66,7.26 1,11c-1.64,-3.29 -2.41,-5.48 -3,-9c-0.99,-0.33 -1.98,-0.66 -3,-1c-0.33,-0.99 -0.66,-1.98 -1,-3z" fill="#460533" id="svg_137" transform="translate(240,197)"/>
  <path d="m0,0c0.99,0 1.98,0 3,0c1.69,2 1.69,2 3,4c-1.32,0.33 -2.64,0.66 -4,1c0,2.64 0,5.28 0,8c-2,-2 -2,-2 -2.2,-4.6c0.03,-1 0.05,-2 0.07,-3.02c0.02,-1.01 0.04,-2.01 0.06,-3.04c0.02,-0.77 0.05,-1.55 0.07,-2.34z" fill="#1B06AB" id="svg_138" transform="translate(132,350)"/>
  <path d="m0,0c0.71,1.77 0.71,1.77 1,4c-1.4,1.85 -1.4,1.85 -3.38,3.63c-2.69,2.39 -2.69,2.39 -4.62,5.37c-1.32,-0.33 -2.64,-0.66 -4,-1c0.99,0 1.98,0 3,0c0.25,-0.56 0.5,-1.11 0.75,-1.69c1.47,-2.71 3.29,-4.93 5.25,-7.31c0.66,-0.99 1.32,-1.98 2,-3z" fill="#2E92B3" id="svg_139" transform="translate(176,276)"/>
  <path d="m0,0c0.99,0.49 0.99,0.49 2,1c0,0.66 0,1.32 0,2c0.99,0 1.98,0 3,0c0.33,2.31 0.66,4.62 1,7c-0.99,-0.33 -1.98,-0.66 -3,-1c-0.37,-1.32 -0.71,-2.66 -1,-4c-0.66,-0.33 -1.32,-0.66 -2,-1c0,-1.32 0,-2.64 0,-4z" fill="#951053" id="svg_140" transform="translate(325,263)"/>
  <path d="m0,0c1.95,3.9 2.51,6.72 3,11c-1.32,-0.33 -2.64,-0.66 -4,-1c0.33,-3.3 0.66,-6.6 1,-10z" fill="#8F2137" id="svg_141" transform="translate(183,246)"/>
  <path d="m0,0c0.33,0.99 0.66,1.98 1,3c-3.63,-0.33 -7.26,-0.66 -11,-1c0,-0.66 0,-1.32 0,-2c3.69,-1.23 6.21,-0.64 10,0z" fill="#A7513E" id="svg_142" transform="translate(247,152)"/>
  <path d="m0,0c6.52,0.49 6.52,0.49 8.94,3.06c0.35,0.64 0.7,1.28 1.06,1.94c-3.37,-0.55 -5.08,-1.05 -8,-3c-0.99,0.33 -1.98,0.66 -3,1c0.33,-0.99 0.66,-1.98 1,-3z" fill="#61223A" id="svg_143" transform="translate(275,289)"/>
  <path d="m0,0c1.98,0 3.96,0 6,0c0.33,0.99 0.66,1.98 1,3c0.66,0.33 1.32,0.66 2,1c-1.65,0.33 -3.3,0.66 -5,1c-0.33,-0.66 -0.66,-1.32 -1,-2c-0.99,-0.33 -1.98,-0.66 -3,-1c0,-0.66 0,-1.32 0,-2z" fill="#FA622B" id="svg_144" transform="translate(211,280)"/>
  <path d="m0,0c0.99,0.33 1.98,0.66 3,1c0,0.66 0,1.32 0,2c0.66,0 1.32,0 2,0c0.12,0.97 0.25,1.94 0.38,2.94c0.2,1.01 0.41,2.02 0.62,3.06c0.66,0.33 1.32,0.66 2,1c-0.66,0.66 -1.32,1.32 -2,2c-1.01,-1.62 -2,-3.25 -3,-4.87c-0.56,-0.91 -1.11,-1.81 -1.69,-2.75c-1.31,-2.38 -1.31,-2.38 -1.31,-4.38z" fill="#AE2F41" id="svg_145" transform="translate(286,275)"/>
  <path d="m0,0c0.33,0.66 0.66,1.32 1,2c-0.45,0.89 -0.91,1.77 -1.38,2.69c-1.72,3.52 -2.23,6.43 -2.62,10.31c-0.33,0 -0.66,0 -1,0c-0.11,-1.94 -0.19,-3.87 -0.25,-5.81c-0.05,-1.08 -0.09,-2.16 -0.14,-3.27c0.39,-2.92 0.39,-2.92 2.41,-4.81c0.65,-0.36 1.31,-0.73 1.98,-1.11z" fill="#29749F" id="svg_146" transform="translate(167,269)"/>
  <path d="m0,0c1.98,0.99 1.98,0.99 4,2c0,0.99 0,1.98 0,3c0.66,0.33 1.32,0.66 2,1c-1.98,0.99 -1.98,0.99 -4,2c-2,-2 -2,-2 -2.13,-5.12c0.05,-0.95 0.09,-1.9 0.13,-2.88z" fill="#E23170" id="svg_147" transform="translate(176,252)"/>
  <path d="m0,0c0.66,0 1.32,0 2,0c0.33,1.98 0.66,3.96 1,6c-1.32,0.99 -2.64,1.98 -4,3c-0.66,-0.33 -1.32,-0.66 -2,-1c0.99,-2.64 1.98,-5.28 3,-8z" fill="#D01A53" id="svg_148" transform="translate(265,206)"/>
  <path d="m0,0c1.32,0.66 2.64,1.32 4,2c-2.97,1.9 -5.51,3.35 -9,4c-0.33,-0.66 -0.66,-1.32 -1,-2c0.8,-0.47 1.61,-0.95 2.44,-1.44c2.41,-1.33 2.41,-1.33 3.56,-2.56z" fill="#890C6A" id="svg_149" transform="translate(289,207)"/>
  <path d="m0,0c-0.33,2.64 -0.66,5.28 -1,8c-0.99,0.33 -1.98,0.66 -3,1c-0.19,-3.37 -0.19,-3.37 0,-7c3,-2 3,-2 4,-2z" fill="#F1422D" id="svg_150" transform="translate(267,183)"/>
  <path d="m0,0c3.63,0 7.26,0 11,0c-1.98,0.99 -1.98,0.99 -4,2c0.33,0.66 0.66,1.32 1,2c-4.46,-0.99 -4.46,-0.99 -9,-2c0.33,-0.66 0.66,-1.32 1,-2z" fill="#F47033" id="svg_151" transform="translate(247,152)"/>
  <path d="m0,0c0.99,0.33 1.98,0.66 3,1c0,2.31 0,4.62 0,7c-1.32,-0.33 -2.64,-0.66 -4,-1c-0.04,-2 -0.04,-4 0,-6c0.33,-0.33 0.66,-0.66 1,-1z" fill="#FA6E20" id="svg_152" transform="translate(333,348)"/>
  <path d="m0,0c1.32,0.33 2.64,0.66 4,1c0,2.64 0,5.28 0,8c0.66,0 1.32,0 2,0c0,0.66 0,1.32 0,2c-0.99,0 -1.98,0 -3,0c-1.62,-2.57 -2.04,-3.68 -1.62,-6.75c0.2,-0.74 0.41,-1.48 0.62,-2.25c-0.66,0 -1.32,0 -2,0c0,-0.66 0,-1.32 0,-2z" fill="#E24D39" id="svg_153" transform="translate(305,304)"/>
  <path d="m0,0c0.99,0 1.98,0 3,0c-1.37,4 -3.26,6.8 -6,10c0,-1.65 0,-3.3 0,-5c0.66,0 1.32,0 2,0c0.33,-1.65 0.66,-3.3 1,-5z" fill="#7D1839" id="svg_154" transform="translate(236,223)"/>
  <path d="m0,0c2.38,0.69 2.38,0.69 5,2c1.31,2.63 1.31,2.63 2,5c-0.66,0.66 -1.32,1.32 -2,2c0,-1.32 0,-2.64 0,-4c-1.32,0 -2.64,0 -4,0c-0.33,-1.65 -0.66,-3.3 -1,-5z" fill="#C05A41" id="svg_155" transform="translate(271,161)"/>
  <path d="m0,0c0.33,1.32 0.66,2.64 1,4c-0.99,0 -1.98,0 -3,0c0.66,-1.32 1.32,-2.64 2,-4zm-2,4c-0.33,1.65 -0.66,3.3 -1,5c-0.99,-0.33 -1.98,-0.66 -3,-1c0,-0.99 0,-1.98 0,-3c2,-1 2,-1 4,-1z" fill="#FC681B" id="svg_156" transform="translate(358,356)"/>
  <path d="m0,0c2.62,2.37 4.39,4.86 6,8c-0.33,0.66 -0.66,1.32 -1,2c-1.94,-0.5 -1.94,-0.5 -4,-2c-0.69,-2.7 -0.82,-5.2 -1,-8z" fill="#A34739" id="svg_157" transform="translate(289,300)"/>
  <path d="m0,0c4.62,1.32 8.1,3.21 12,6c-1.62,0.75 -1.62,0.75 -4,1c-3.61,-2.02 -5.69,-3.54 -8,-7z" fill="#B23C56" id="svg_158" transform="translate(180,275)"/>
  <path d="m0,0c1,3.31 1.1,6.3 1.06,9.75c-0.01,0.98 -0.02,1.97 -0.02,2.98c-0.02,0.75 -0.03,1.5 -0.04,2.27c-0.99,0.49 -0.99,0.49 -2,1c-1.27,-3.65 -0.76,-6.49 -0.06,-10.25c0.19,-1.08 0.39,-2.16 0.59,-3.27c0.15,-0.82 0.31,-1.64 0.47,-2.48z" fill="#B6213A" id="svg_159" transform="translate(261,216)"/>
  <path d="m0,0c1,3 1,3 0.31,5.38c-1.45,2.89 -3.21,5.17 -5.31,7.62c-0.68,-1.7 -0.68,-1.7 -1,-4c1.21,-2.36 1.21,-2.36 2.94,-4.75c0.56,-0.8 1.13,-1.6 1.71,-2.42c0.45,-0.61 0.89,-1.21 1.35,-1.83z" fill="#000012" id="svg_160" transform="translate(179,215)"/>
  <path d="m0,0c0.66,0 1.32,0 2,0c0.7,1.24 1.39,2.49 2.06,3.75c0.39,0.7 0.77,1.39 1.16,2.11c0.91,2.5 0.66,3.67 -0.22,6.14c-0.84,-1.43 -1.67,-2.87 -2.5,-4.31c-0.7,-1.2 -0.7,-1.2 -1.41,-2.43c-1.09,-2.26 -1.09,-2.26 -1.09,-5.26z" fill="#A8294A" id="svg_161" transform="translate(280,263)"/>
  <path d="m0,0c2.5,1.38 2.5,1.38 5,3c0,0.66 0,1.32 0,2c0.99,0.33 1.98,0.66 3,1c-0.99,0.5 -0.99,0.5 -2,1c-2.48,-1.11 -4.68,-2.58 -7,-4c0.33,-0.99 0.66,-1.98 1,-3z" fill="#ED4A42" id="svg_162" transform="translate(187,263)"/>
  <path d="m0,0c2.87,2.7 4.45,5.36 6,9c-0.33,0.66 -0.66,1.32 -1,2c-3,-2 -3,-2 -3.73,-4.16c-0.15,-0.82 -0.3,-1.63 -0.46,-2.46c-0.16,-0.82 -0.31,-1.64 -0.48,-2.48c-0.11,-0.63 -0.22,-1.25 -0.33,-1.9z" fill="#9E4052" id="svg_163" transform="translate(278,168)"/>
  <path d="m0,0c0.33,0.99 0.66,1.98 1,3c-3.06,2.62 -3.73,3 -8,3c0,-1.32 0,-2.64 0,-4c2.31,0 4.62,0 7,0c0,-0.66 0,-1.32 0,-2z" fill="#FC6847" id="svg_164" transform="translate(275,166)"/>
  <path d="m0,0c2.97,0.49 2.97,0.49 6,1c0.33,2.31 0.66,4.62 1,7c-2.65,-2.58 -4.94,-4.92 -7,-8z" fill="#491332" id="svg_165" transform="translate(250,158)"/>
  <path d="m0,0c0,0.33 0,0.66 0,1c-1.67,0.43 -1.67,0.43 -3.38,0.88c-3.62,0.81 -3.62,0.81 -5.62,3.12c-0.99,0 -1.98,0 -3,0c1,-3 1,-3 2.62,-4.19c3.18,-1.08 6.05,-0.94 9.38,-0.81z" fill="#400F39" id="svg_166" transform="translate(275,287)"/>
  <path d="m0,0c4.52,-0.08 8.59,-0.1 13,1c0,0.33 0,0.66 0,1c-8.19,1.45 -8.19,1.45 -11.56,-0.44c-0.48,-0.51 -0.95,-1.03 -1.44,-1.56z" fill="#F35D34" id="svg_167" transform="translate(204,278)"/>
  <path d="m0,0c0.29,0.62 0.58,1.24 0.88,1.88c1.06,2.25 1.06,2.25 3.12,4.12c0.13,2.63 0.13,2.63 0,5c-2.52,-3.12 -4.27,-6.38 -6,-10c0.66,-0.33 1.32,-0.66 2,-1z" fill="#A31B4B" id="svg_168" transform="translate(266,236)"/>
  <path d="m0,0c0.66,0 1.32,0 2,0c-0.33,2.97 -0.66,5.94 -1,9c-0.99,0.33 -1.98,0.66 -3,1c0.66,-3.3 1.32,-6.6 2,-10z" fill="#2E1342" id="svg_169" transform="translate(181,226)"/>
  <path d="m0,0c0.33,0 0.66,0 1,0c0,2.64 0,5.28 0,8c-1.65,0.33 -3.3,0.66 -5,1c0.31,-1.94 0.31,-1.94 1,-4c0.99,-0.33 1.98,-0.66 3,-1c0,-1.32 0,-2.64 0,-4z" fill="#E23736" id="svg_170" transform="translate(267,176)"/>
  <path d="m0,0c0.99,0 1.98,0 3,0c0.33,0.66 0.66,1.32 1,2c3.03,0.66 3.03,0.66 6,1c0,0.66 0,1.32 0,2c-6.62,-0.75 -6.62,-0.75 -10,-3c0,-0.66 0,-1.32 0,-2z" fill="#A54F30" id="svg_171" transform="translate(340,365)"/>
  <path d="m0,0c2.15,2.62 3.4,4.64 4,8c-1.32,0 -2.64,0 -4,0c0,-2.64 0,-5.28 0,-8z" fill="#B31B4A" id="svg_172" transform="translate(347,302)"/>
  <path d="m0,0c1.65,0.99 3.3,1.98 5,3c-0.66,1.32 -1.32,2.64 -2,4c-1.32,-1.65 -2.64,-3.3 -4,-5c0.33,-0.66 0.66,-1.32 1,-2z" fill="#A9303C" id="svg_173" transform="translate(184,256)"/>
  <path d="m0,0c0.33,0 0.66,0 1,0c0,2.64 0,5.28 0,8c-0.99,0.33 -1.98,0.66 -3,1c0.87,-7.87 0.87,-7.87 2,-9z" fill="#313B90" id="svg_174" transform="translate(173,247)"/>
  <path d="m0,0c0.66,0 1.32,0 2,0c-0.33,0.99 -0.66,1.98 -1,3c-0.22,2.06 -0.41,4.12 -0.56,6.19c-0.09,1.08 -0.17,2.17 -0.26,3.29c-0.06,0.83 -0.12,1.66 -0.18,2.52c-0.33,0 -0.66,0 -1,0c-0.03,-2.31 -0.05,-4.62 -0.06,-6.94c-0.01,-1.29 -0.03,-2.57 -0.04,-3.9c0.1,-3.16 0.1,-3.16 1.1,-4.16z" fill="#190C70" id="svg_175" transform="translate(130,339)"/>
  <path d="m0,0c3.88,1.88 3.88,1.88 5,3c0.04,1.67 0.04,3.33 0,5c-2.72,-2.35 -3.81,-4.62 -5,-8z" fill="#BE4B34" id="svg_176" transform="translate(316,327)"/>
  <path d="m0,0c1.88,0.19 1.88,0.19 4,1c1.25,2.56 1.25,2.56 2,5c-1.87,-0.19 -1.87,-0.19 -4,-1c-1.25,-2.56 -1.25,-2.56 -2,-5z" fill="#833338" id="svg_177" transform="translate(283,294)"/>
  <path d="m0,0c1.32,0.33 2.64,0.66 4,1c-0.33,1.65 -0.66,3.3 -1,5c-0.66,0 -1.32,0 -2,0c-0.33,-1.98 -0.66,-3.96 -1,-6z" fill="#F6343E" id="svg_178" transform="translate(291,278)"/>
  <path d="m0,0c0,3.87 -1.42,6.51 -3,10c-0.66,0 -1.32,0 -2,0c1.16,-3.91 2.36,-6.87 5,-10z" fill="#24216B" id="svg_179" transform="translate(175,237)"/>
  <path d="m0,0c0.66,0 1.32,0 2,0c0,1.32 0,2.64 0,4c0.99,0.33 1.98,0.66 3,1c-1.65,0.33 -3.3,0.66 -5,1c-1,-3 -1,-3 0,-6z" fill="#D60852" id="svg_180" transform="translate(268,235)"/>
  <path d="m0,0c1.32,0.33 2.64,0.66 4,1c0,0.66 0,1.32 0,2c-0.66,0 -1.32,0 -2,0c0,1.98 0,3.96 0,6c-1.86,-3.13 -2.2,-5.37 -2,-9z" fill="#86223A" id="svg_181" transform="translate(259,167)"/>
  <path d="m0,0c1.94,0.75 1.94,0.75 4,2c0.75,2.13 0.75,2.13 1,4c-0.99,0.5 -0.99,0.5 -2,1c-3,-4.75 -3,-4.75 -3,-7z" fill="#C4582C" id="svg_182" transform="translate(332,355)"/>
  <path d="m0,0c0.66,0.33 1.32,0.66 2,1c-2.97,2.48 -2.97,2.48 -6,5c0.33,-1.65 0.66,-3.3 1,-5c0.99,-0.33 1.98,-0.66 3,-1z" fill="#590B39" id="svg_183" transform="translate(243,309)"/>
  <path d="m0,0c0.99,0 1.98,0 3,0c0,1.98 0,3.96 0,6c-0.99,0 -1.98,0 -3,0c0,-1.98 0,-3.96 0,-6z" fill="#E81D46" id="svg_184" transform="translate(344,304)"/>
  <path d="m0,0c0.99,0.33 1.98,0.66 3,1c-0.33,0.99 -0.66,1.98 -1,3c-1.65,0 -3.3,0 -5,0c0.99,-1.32 1.98,-2.64 3,-4z" fill="#A53833" id="svg_185" transform="translate(282,296)"/>
  <path d="m0,0c0.66,0.33 1.32,0.66 2,1c0,1.32 0,2.64 0,4c-1.32,0.33 -2.64,0.66 -4,1c0.51,-2.17 1,-4 2,-6z" fill="#F94B16" id="svg_186" transform="translate(195,211)"/>
  <path d="m0,0c0.99,0 1.98,0 3,0c-1.25,3.65 -1.67,4.78 -5,7c-0.33,-0.66 -0.66,-1.32 -1,-2c1.25,-2.62 1.25,-2.62 3,-5z" fill="#1A032D" id="svg_187" transform="translate(211,177)"/>
  <path fill="#000000" id="svg_199" transform="translate(0,0)"/>
  <path fill="#000000" id="svg_200" transform="translate(0,0)"/>
  <path fill="#000000" id="svg_201" transform="translate(0,0)"/>
  <path fill="#000000" id="svg_202" transform="translate(0,0)"/>
  <path fill="#000000" id="svg_203" transform="translate(0,0)"/>
  <path fill="#000000" id="svg_204" transform="translate(0,0)"/>
  <path fill="#000000" id="svg_205" transform="translate(0,0)"/>
  <path fill="#000024" id="svg_206" transform="translate(0,0)"/>
  <path fill="#000015" id="svg_207" transform="translate(0,0)"/>
  <path fill="#00002A" id="svg_208" transform="translate(0,0)"/>
  <path fill="#000000" id="svg_209" transform="translate(0,0)"/>
  <path fill="#000012" id="svg_210" transform="translate(0,0)"/>
  <path fill="#000015" id="svg_211" transform="translate(0,0)"/>
  <path fill="#000000" id="svg_212" transform="translate(0,0)"/>
  <path fill="#000000" id="svg_213" transform="translate(0,0)"/>
  <path fill="#000020" id="svg_214" transform="translate(0,0)"/>
  <path fill="#000000" id="svg_215" transform="translate(0,0)"/>
  <path fill="#000019" id="svg_216" transform="translate(0,0)"/>
  <path fill="#000015" id="svg_217" transform="translate(0,0)"/>
  <path fill="#0D0019" id="svg_218" transform="translate(0,0)"/>
  <path fill="#000000" id="svg_219" transform="translate(0,0)"/>
  <path d="m0,0c2,1 2,1 2,1l-2,-1z" fill="#000019" id="svg_220" transform="translate(305,178)"/>
  <path fill="#000015" id="svg_221" transform="translate(0,0)"/>
  <path fill="#000012" id="svg_222" transform="translate(0,0)"/>
  <path d="m0,0c2,1 2,1 2,1l-2,-1z" fill="#040440" id="svg_223" transform="translate(296,171)"/>
  <path d="m0,0c2,1 2,1 2,1l-2,-1z" fill="#090831" id="svg_224" transform="translate(282,164)"/>
  <path d="m0,0c2,1 2,1 2,1l-2,-1z" fill="#09082B" id="svg_225" transform="translate(280,163)"/>
  <path fill="#000000" id="svg_226" transform="translate(0,0)"/>
  <path fill="#000000" id="svg_227" transform="translate(0,0)"/>
  <path fill="#000000" id="svg_228" transform="translate(0,0)"/>
  <path fill="#000000" id="svg_229" transform="translate(0,0)"/>
  <path fill="#00002A" id="svg_230" transform="translate(0,0)"/>
  <path fill="#000000" id="svg_231" transform="translate(0,0)"/>
  <path fill="#17002E" id="svg_232" transform="translate(0,0)"/>
  <path fill="#000055" id="svg_233" transform="translate(0,0)"/>
  <path fill="#001540" id="svg_234" transform="translate(0,0)"/>
  <path fill="#000040" id="svg_235" transform="translate(0,0)"/>
  <path fill="#000000" id="svg_236" transform="translate(0,0)"/>
  <path fill="#121237" id="svg_237" transform="translate(0,0)"/>
  <path fill="#000055" id="svg_238" transform="translate(0,0)"/>
  <path fill="#000000" id="svg_239" transform="translate(0,0)"/>
  <path fill="#000040" id="svg_240" transform="translate(0,0)"/>
  <path fill="#1A0033" id="svg_241" transform="translate(0,0)"/>
  <path fill="#000055" id="svg_242" transform="translate(0,0)"/>
  <path fill="#000000" id="svg_243" transform="translate(0,0)"/>
  <path fill="#000000" id="svg_244" transform="translate(0,0)"/>
  <path fill="#000000" id="svg_245" transform="translate(0,0)"/>
  <path fill="#151540" id="svg_246" transform="translate(0,0)"/>
  <path fill="#000055" id="svg_247" transform="translate(0,0)"/>
  <path fill="#000000" id="svg_248" transform="translate(0,0)"/>
  <path fill="#000000" id="svg_249" transform="translate(0,0)"/>
  <path fill="#111133" id="svg_250" transform="translate(0,0)"/>
  <path fill="#000000" id="svg_251" transform="translate(0,0)"/>
  <path fill="#101040" id="svg_252" transform="translate(0,0)"/>
  <path fill="#000055" id="svg_253" transform="translate(0,0)"/>
  <path fill="#000000" id="svg_254" transform="translate(0,0)"/>
  <path fill="#000000" id="svg_255" transform="translate(0,0)"/>
  <path fill="#0D0D33" id="svg_256" transform="translate(0,0)"/>
  <path fill="#000000" id="svg_257" transform="translate(0,0)"/>
  <path fill="#000000" id="svg_258" transform="translate(0,0)"/>
  <path fill="#000033" id="svg_259" transform="translate(0,0)"/>
  <path fill="#000000" id="svg_260" transform="translate(0,0)"/>
  <path fill="#000000" id="svg_261" transform="translate(0,0)"/>
  <path fill="#000000" id="svg_262" transform="translate(0,0)"/>
  <path fill="#0A0A33" id="svg_263" transform="translate(0,0)"/>
  <path fill="#000000" id="svg_264" transform="translate(0,0)"/>
  <path fill="#000000" id="svg_265" transform="translate(0,0)"/>
  <path fill="#000000" id="svg_266" transform="translate(0,0)"/>
  <path fill="#000000" id="svg_267" transform="translate(0,0)"/>
  <path fill="#000000" id="svg_268" transform="translate(0,0)"/>
  <path fill="#000000" id="svg_269" transform="translate(0,0)"/>
  <path fill="#000000" id="svg_270" transform="translate(0,0)"/>
  <path fill="#000000" id="svg_271" transform="translate(0,0)"/>
  <path fill="#000000" id="svg_272" transform="translate(0,0)"/>
  <path fill="#000000" id="svg_273" transform="translate(0,0)"/>
  <path fill="#000000" id="svg_274" transform="translate(0,0)"/>
  <path fill="#000033" id="svg_275" transform="translate(0,0)"/>
  <path fill="#000055" id="svg_276" transform="translate(0,0)"/>
  <path fill="#000033" id="svg_277" transform="translate(0,0)"/>
  <path fill="#000C31" id="svg_278" transform="translate(0,0)"/>
  <path fill="#000000" id="svg_279" transform="translate(0,0)"/>
  <path fill="#000040" id="svg_280" transform="translate(0,0)"/>
  <path fill="#000040" id="svg_281" transform="translate(0,0)"/>
  <path fill="#000000" id="svg_282" transform="translate(0,0)"/>
  <path fill="#140A33" id="svg_283" transform="translate(0,0)"/>
  <path fill="#000000" id="svg_284" transform="translate(0,0)"/>
  <path fill="#15002A" id="svg_285" transform="translate(0,0)"/>
  <path fill="#000055" id="svg_286" transform="translate(0,0)"/>
  <path fill="#000000" id="svg_287" transform="translate(0,0)"/>
  <path fill="#110833" id="svg_288" transform="translate(0,0)"/>
  <path fill="#000000" id="svg_289" transform="translate(0,0)"/>
  <path fill="#000040" id="svg_290" transform="translate(0,0)"/>
  <path fill="#00002A" id="svg_291" transform="translate(0,0)"/>
 </g>
</svg>