<svg xmlns="http://www.w3.org/2000/svg" version="1.0" viewBox="0 0 1750 1334"><path fill-opacity=".1" d="M190.5 597c1 1.1 2 2 2.3 2s-.3-.9-1.3-2-2-2-2.3-2 .3.9 1.3 2m1116 10c1 1.1 2 2 2.3 2s-.3-.9-1.3-2-2-2-2.3-2 .3.9 1.3 2m-1130.2 8.2c-1.9 1.9-2.4 2-4 .8-1.7-1.3-1.7-1.3 0 .5 1.7 1.9 1.8 1.9 4.4-.8 1.5-1.5 2.5-2.7 2.2-2.7-.2 0-1.4 1-2.6 2.2m-92.4.5c-1.3 1.6-1.2 1.7.4.4s2.1-2.1 1.3-2.1c-.2 0-1 .8-1.7 1.7M978 704.4c0 .2.8 1 1.8 1.7 1.5 1.3 1.6 1.2.3-.4s-2.1-2.1-2.1-1.3m-896 6.1c1.3 1.4 2.6 2.5 2.8 2.5.3 0-.5-1.1-1.8-2.5s-2.6-2.5-2.8-2.5c-.3 0 .5 1.1 1.8 2.5M1315.5 724c1 1.1 2 2 2.3 2s-.3-.9-1.3-2-2-2-2.3-2 .3.9 1.3 2m-311.5 9.4c0 .2.8 1 1.8 1.7 1.5 1.3 1.6 1.2.3-.4s-2.1-2.1-2.1-1.3m492.9 1.3c-1.3 1.6-1.2 1.7.4.4.9-.7 1.7-1.5 1.7-1.7 0-.8-.8-.3-2.1 1.3"/><path fill-opacity=".7" d="M1090.3 466.7c.9.2 2.5.2 3.5 0 .9-.3.1-.5-1.8-.5s-2.7.2-1.7.5m484 115.3c0 3.6.2 5 .4 3.2.2-1.7.2-4.7 0-6.5-.2-1.7-.4-.3-.4 3.3M491.8 650.7c13.3.2 35.1.2 48.5 0 13.3-.1 2.4-.2-24.3-.2s-37.6.1-24.2.2m685.3 4.9c0 1.1.3 1.4.6.6.3-.7.2-1.6-.1-1.9-.3-.4-.6.2-.5 1.3m-12.8 7.9c0 3.8.2 5.3.4 3.2.2-2 .2-5.2 0-7-.2-1.7-.4-.1-.4 3.8m-692 60.2c18.1.2 47.3.2 65 0 17.7-.1 3-.2-32.8-.2-35.7 0-50.2.1-32.2.2m961 21.3c0 3.6.2 5 .4 3.2.2-1.7.2-4.7 0-6.5-.2-1.7-.4-.3-.4 3.3m-181-4.3c.9.2 2.5.2 3.5 0 .9-.3.1-.5-1.8-.5s-2.7.2-1.7.5m-5.5 12c.6.2 1.8.2 2.5 0 .6-.3.1-.5-1.3-.5s-1.9.2-1.2.5m12 0c.6.2 1.8.2 2.5 0 .6-.3.1-.5-1.3-.5s-1.9.2-1.2.5"/><g fill-opacity=".2" stroke-opacity=".2" stroke-width="0"><path d="M1088.5 666.5c0 110 .1 154.9.2 99.7.2-55.2.2-145.2 0-200-.1-54.8-.2-9.7-.2 100.3m7 0c0 110 .1 154.9.2 99.7.2-55.2.2-145.2 0-200-.1-54.8-.2-9.7-.2 100.3m-970.7-93.8c1.7.2 4.7.2 6.5 0 1.7-.2.3-.4-3.3-.4s-5 .2-3.2.4m1126 1c1.7.2 4.7.2 6.5 0 1.7-.2.3-.4-3.3-.4s-5 .2-3.2.4m-979.1 2 14.3.4.2 74.2.3 74.2h91l-45.2-.2-45.3-.3-.2-74.3-.3-74.2H272l-14.5-.1zm167.8.5c-.3.7-.4 23.6-.3 50.8l.3 49.5.3-50.2.2-50.3 64.3-.3 64.2-.2-64.3-.3c-50.7-.1-64.4.1-64.7 1m266.8-.5c4.2.2 11.2.2 15.5 0 4.2-.1.7-.3-7.8-.3s-12 .2-7.7.3m224.5 0c4.6.2 11.8.2 16 0 4.2-.1.5-.3-8.3-.3s-12.3.2-7.7.3m453.9 0c1.8.2 5 .2 7 0 2.1-.2.7-.4-3.2-.4-3.8 0-5.5.2-3.8.4m117.8.5c-.3.7-.4 26.3-.3 56.8l.3 55.5.3-56.3.2-56.2h13l.3 56.2.2 56.3v-113l-6.8-.3c-4.8-.2-6.9.1-7.2 1m-256.7 10.5c.7.3 1.6.2 1.9-.1.4-.3-.2-.6-1.3-.5-1.1 0-1.4.3-.6.6m344.5 2c8.6.2 22.8.2 31.5 0 8.6-.1 1.5-.3-15.8-.3s-24.4.2-15.7.3m61.2.5c-.3.7-.4 37.5-.3 81.8l.3 80.5.3-81.2.2-81.3 31.3-.3 31.2-.2-31.3-.3c-24.3-.1-31.4.1-31.7 1m-756 44v31.3H950l-27-.2-27-.3-.3-31-.2-31z"/><path d="M492.8 603.7c13.8.2 36.6.2 50.5 0 13.8-.1 2.5-.2-25.3-.2s-39.1.1-25.2.2m517.3 24.9c0 1.1.3 1.4.6.6.3-.7.2-1.6-.1-1.9-.3-.4-.6.2-.5 1.3m-29 5c0 1.1.3 1.4.6.6.3-.7.2-1.6-.1-1.9-.3-.4-.6.2-.5 1.3m29 4c0 1.1.3 1.4.6.6.3-.7.2-1.6-.1-1.9-.3-.4-.6.2-.5 1.3M895.4 721c0 16.8.2 23.6.3 15.2.2-8.3.2-22.1 0-30.5-.1-8.3-.3-1.5-.3 15.3m-181.9-6.3c25 .7 48.3.7 47.8 0-.2-.4-13.3-.6-29.1-.5s-24.2.3-18.7.5m-274.1 22.8c0 7.7.2 10.7.3 6.7.2-4 .2-10.3 0-14s-.3-.4-.3 7.3m130 0c0 7.7.2 10.7.3 6.7.2-4 .2-10.3 0-14s-.3-.4-.3 7.3m-446.6-9.8c.7.3 1.6.2 1.9-.1.4-.3-.2-.6-1.3-.5-1.1 0-1.4.3-.6.6m10 0c.7.3 1.6.2 1.9-.1.4-.3-.2-.6-1.3-.5-1.1 0-1.4.3-.6.6m-12 27c.6.2 1.8.2 2.5 0 .6-.3.1-.5-1.3-.5s-1.9.2-1.2.5m13 0c.6.2 1.8.2 2.5 0 .6-.3.1-.5-1.3-.5s-1.9.2-1.2.5"/></g><path d="M1089 666.5V866h6V467h-6zm-977.6-92c-36.1 5.6-62.2 29.1-71.5 64.5-3.2 12.5-3.7 32.4-1.1 45 7.3 35.2 28.2 57.7 61.9 66.7 8.6 2.3 11.8 2.6 26.8 2.7 14.8.1 18.1-.2 25.5-2.2 11.4-3.1 25-9.8 33.9-16.8l7.3-5.7-9.5-9.5-9.5-9.5-4.4 3.7c-6.1 5.2-18.4 11.1-27.4 13.1-5.6 1.3-10.6 1.6-19.2 1.3-14.6-.6-25.6-4-35.7-11.3-26.9-19.2-32.7-64.1-12-93.1 5.7-7.9 12.7-13.7 22-17.9 10.5-4.9 16.5-6 30.5-5.9 17.8.1 26.7 3.2 42.7 15 2.1 1.5 2.4 1.5 6-1.4 2.1-1.7 6.2-5.5 9.1-8.5l5.3-5.4-5.5-5c-18.9-16.8-46.9-24.2-75.2-19.8m1126.8.6c-37.1 5.7-64.2 31.8-71.7 68.8-2.6 12.8-1.7 35.5 1.9 47.6 8.8 29.3 29.9 50.2 58.1 57.4 32.5 8.4 63.8 1.6 87.5-18.9l3.4-3-4-4.1-4.1-4.1-6.9 5.3c-14.8 11.2-30.3 16.2-49.9 16.1-14.5-.1-24.1-2.3-36.5-8.3-12-5.9-24-17.9-29.9-29.9-6.7-13.8-8.4-21.9-8.4-39.5 0-13.4.3-15.9 2.7-24 4.3-14.1 8.8-21.8 18.6-31.6 6.8-6.9 10.1-9.4 17-12.7 12.2-6 18.4-7.4 34.6-7.9 12.1-.4 15.3-.2 22.5 1.6 10.8 2.7 20.7 7.5 29.2 14l6.8 5.2 3.9-3.1c2.2-1.8 4-3.6 4-4 0-.5-2.8-3.2-6.2-6-8-6.5-23.9-14.4-34.3-17.1-9.3-2.4-28.6-3.3-38.3-1.8M258 663.5V751h120v-26h-92V576h-28zM440 626v50h124v-25h-96v-48h100v-27H440zm257.1-45.8c-1 2.4-18.6 41.5-39 87.1-20.4 45.5-37.1 82.9-37.1 83.2s6.4.5 14.3.5h14.3l31.9-72.5C699 638.6 713.7 606 714 606c.6 0 37 81 37 82.4 0 .3-8.2.7-18.2.8l-18.2.3-4.8 11.5c-2.6 6.3-4.8 11.8-4.8 12.2 0 .5 12.7.8 28.3.8h28.4l8.4 18.5 8.4 18.5h14.2c7.9 0 14.3-.3 14.3-.8-.1-.4-17.6-39.6-38.9-87.2l-38.9-86.5-15.1-.3-15.1-.3zM867 663.4V751h28v-61h18.8l18.7.1 26.5 30.4 26.5 30.4h15.8c8.6.1 15.7-.3 15.7-.8 0-1.4-4.2-6.3-29.5-34.5-13.2-14.7-24.1-27.1-24.3-27.5-.1-.4 2.3-1.3 5.5-2 14.5-3.2 28.3-13.1 34.6-24.8 3.8-7.1 6.7-19.2 6.7-27.8 0-25.3-15.1-46.1-39.4-54.2l-8.1-2.7-47.7-.4-47.8-.3zm96.6-59.6c6.4 2.9 12.6 9.2 15.6 15.7 3.3 7.2 3.3 20.8-.1 28.2-2.7 6.1-8.4 11.6-15 14.7-4.3 2-6.4 2.1-36.8 2.4l-32.3.3v-64.2l31.8.3c30.6.3 31.9.4 36.8 2.6m418.4 27.5c0 32.1.4 58.7 1 63.5 1.2 9 4.5 19.2 8.6 26.7 3.7 6.4 12.4 15.6 19.1 20.1 5.3 3.5 18.3 9.3 21.1 9.4.8 0 1.2-1.8 1.2-5.8v-5.7l-8-3.8c-10.5-4.9-18.4-12.5-23.3-22.7-6.5-13.2-6.7-14.8-6.7-79.3V576h-13zm121 2.9c0 46.8-.3 59.6-1.5 65.1-3.4 16.3-13.8 29.5-28.4 36.4l-8.1 3.8v5.7c0 4 .4 5.8 1.3 5.8 2.7-.1 15.7-5.9 21-9.4 12.2-8.1 22.3-22.6 26.3-37.6 1.6-5.7 1.8-13.6 2.1-67.3l.4-60.7H1503zm72-52.2v6h63v163h13V588h63v-12h-139zM440 737.5V751h129v-27H440z"/><path fill-opacity=".3" d="m61.4 598.2-2.9 3.3 3.3-2.9c1.7-1.7 3.2-3.1 3.2-3.3 0-.8-.8-.1-3.6 2.9m1137 9-2.9 3.3 3.3-2.9c3-2.8 3.7-3.6 2.9-3.6-.2 0-1.6 1.5-3.3 3.2m-1017 3-2.9 3.3 3.3-2.9c3-2.8 3.7-3.6 2.9-3.6-.2 0-1.6 1.5-3.3 3.2M1196 716.3c0 .2 1.5 1.6 3.3 3.3l3.2 2.9-2.9-3.3c-2.8-3-3.6-3.7-3.6-2.9m119.9 12.4c-1.3 1.6-1.2 1.7.4.4.9-.7 1.7-1.5 1.7-1.7 0-.8-.8-.3-2.1 1.3"/><path fill-opacity=".5" d="M880.8 575.7c7.9.2 20.5.2 28 0 7.5-.1 1.1-.3-14.3-.3s-21.6.2-13.7.3m-312.4 13.8c0 7.7.2 10.7.3 6.7.2-4 .2-10.3 0-14s-.3-.4-.3 7.3m827.1 43.5c0 31.6.1 44.6.2 28.7.2-15.8.2-41.6 0-57.5-.1-15.8-.2-2.8-.2 28.8m318.8-51c0 3.6.2 5 .4 3.2.2-1.7.2-4.7 0-6.5-.2-1.7-.4-.3-.4 3.3m-76.8 88c0 44.8.1 63.2.2 40.7.2-22.4.2-59 0-81.5-.1-22.4-.2-4-.2 40.8M125.8 599.7c1.8.2 4.5.2 6 0s0-.4-3.3-.4-4.5.2-2.7.4m784 2c7.8.2 20.6.2 28.5 0 7.8-.1 1.4-.3-14.3-.3s-22.1.2-14.2.3m100.4 31.3c0 1.4.2 1.9.5 1.2.2-.6.2-1.8 0-2.5-.3-.6-.5-.1-.5 1.3m-446 30.2L564 676l-62.2.3-62.3.2 62.3.3c50.5.2 62.4 0 62.8-1.1.2-.7.3-6.7.1-13.3l-.3-11.9zm-528-3.2c0 1.9.2 2.7.5 1.7.2-.9.2-2.5 0-3.5-.3-.9-.5-.1-.5 1.8m1141.1 3c0 3.6.2 5 .4 3.2.2-1.7.2-4.7 0-6.5-.2-1.7-.4-.3-.4 3.3M64.2 660c0 1.4.2 1.9.5 1.2.2-.6.2-1.8 0-2.5-.3-.6-.5-.1-.5 1.3m887.6 4.7c.7.3 1.6.2 1.9-.1.4-.3-.2-.6-1.3-.5-1.1 0-1.4.3-.6.6m-887.6 2.8c0 1.6.2 2.2.5 1.2.2-.9.2-2.3 0-3-.3-.6-.5.1-.5 1.8m-28 1c0 1.6.2 2.2.5 1.2.2-.9.2-2.3 0-3-.3-.6-.5.1-.5 1.8m687 20.2c4.8.2 12.9.2 18 0 5.1-.1 1.2-.3-8.7-.3s-14.1.2-9.3.3m778.9.9c0 1.1.3 1.4.6.6.3-.7.2-1.6-.1-1.9-.3-.4-.6.2-.5 1.3m-597.3 1.1c5 .2 13.4.2 18.5 0 5-.1.9-.3-9.3-.3s-14.3.2-9.2.3M378.4 738c0 7.4.1 10.5.3 6.7.2-3.7.2-9.7 0-13.5-.2-3.7-.3-.6-.3 6.8m1085.7 6.7c0 3.4.2 6.4.7 6.6.4.3.6-1.6.4-4.1-.5-8-.9-9-1.1-2.5m-1337.8 10c1.5.2 3.7.2 5 0 1.2-.2 0-.4-2.8-.4-2.7 0-3.8.2-2.2.4m964 112c.9.2 2.5.2 3.5 0 .9-.3.1-.5-1.8-.5s-2.7.2-1.7.5"/><path fill-opacity=".9" d="M189 596.4c0 .2.8 1 1.8 1.7 1.5 1.3 1.6 1.2.3-.4s-2.1-2.1-2.1-1.3m1117.5 9.6c1 1.1 2 2 2.3 2s-.3-.9-1.3-2-2-2-2.3-2 .3.9 1.3 2M83.9 614.7c-1.3 1.6-1.2 1.7.4.4s2.1-2.1 1.3-2.1c-.2 0-1 .8-1.7 1.7m92.1-.2c-.7.9-2 1.3-2.9 1-1.3-.5-1.4-.4-.3.7 1 1 1.6.8 3.4-1 1.2-1.2 2-2.2 1.6-2.2-.3 0-1.1.7-1.8 1.5m-97 93.8c0 .2 1.5 1.6 3.3 3.3l3.2 2.9-2.9-3.3c-2.8-3-3.6-3.7-3.6-2.9M1315.5 725c1 1.1 2 2 2.3 2s-.3-.9-1.3-2-2-2-2.3-2 .3.9 1.3 2M1012 743.4c0 .2.8 1 1.8 1.7 1.5 1.3 1.6 1.2.3-.4s-2.1-2.1-2.1-1.3"/><path fill-opacity=".8" d="M991 590.3c0 .2 1.5 1.6 3.3 3.3l3.2 2.9-2.9-3.3c-2.8-3-3.6-3.7-3.6-2.9M184 718.5c5.2 5.2 9.7 9.5 10 9.5.2 0-3.8-4.3-9-9.5s-9.7-9.5-10-9.5c-.2 0 3.8 4.3 9 9.5m804-2.1c0 .2.8 1 1.8 1.7 1.5 1.3 1.6 1.2.3-.4s-2.1-2.1-2.1-1.3m323 4.1c1.3 1.4 2.6 2.5 2.8 2.5.3 0-.5-1.1-1.8-2.5s-2.6-2.5-2.8-2.5c-.3 0 .5 1.1 1.8 2.5m175.9 5.2-2.4 2.8 2.8-2.4c1.5-1.4 2.7-2.6 2.7-2.8 0-.8-.8-.1-3.1 2.4m-77.9-1.3c0 .2.8 1 1.8 1.7 1.5 1.3 1.6 1.2.3-.4s-2.1-2.1-2.1-1.3m-220.5 3.6c1 1.1 2 2 2.3 2s-.3-.9-1.3-2-2-2-2.3-2 .3.9 1.3 2m209.5 3.3c0 .2 1.5 1.6 3.3 3.3l3.2 2.9-2.9-3.3c-2.8-3-3.6-3.7-3.6-2.9"/><path fill-opacity=".6" d="M1190.9 596.7c-1.3 1.6-1.2 1.7.4.4.9-.7 1.7-1.5 1.7-1.7 0-.8-.8-.3-2.1 1.3m124.6 1.3c1 1.1 2 2 2.3 2s-.3-.9-1.3-2-2-2-2.3-2 .3.9 1.3 2m-128.6 2.7c-1.3 1.6-1.2 1.7.4.4.9-.7 1.7-1.5 1.7-1.7 0-.8-.8-.3-2.1 1.3m-999.5 3.5-2.9 3.3 3.3-2.9c1.7-1.7 3.2-3.1 3.2-3.3 0-.8-.8-.1-3.6 2.9m785.5 51.5c-1.3 1.6-1.2 1.7.4.4.9-.7 1.7-1.5 1.7-1.7 0-.8-.8-.3-2.1 1.3m22 17c-1.3 1.6-1.2 1.7.4.4s2.1-2.1 1.3-2.1c-.2 0-1 .8-1.7 1.7M61 729.5c1.3 1.4 2.6 2.5 2.8 2.5.3 0-.5-1.1-1.8-2.5s-2.6-2.5-2.8-2.5c-.3 0 .5 1.1 1.8 2.5"/></svg>