<?xml version="1.0" encoding="UTF-8"?>
<svg version="1.1" xmlns="http://www.w3.org/2000/svg" width="100" height="100">
<path d="M0 0 C33 0 66 0 100 0 C100 33 100 66 100 100 C67 100 34 100 0 100 C0 67 0 34 0 0 Z " fill="#FDFDFE" transform="translate(0,0)"/>
<path d="M0 0 C1.32 0.33 2.64 0.66 4 1 C4 2.32 4 3.64 4 5 C10.93 5 17.86 5 25 5 C25.495 6.98 25.495 6.98 26 9 C25.10539062 9.01417969 24.21078125 9.02835938 23.2890625 9.04296875 C13.32666534 9.43594177 5.7978264 11.14748018 -1.5625 18.125 C-4.14217763 20.80604196 -4.14217763 20.80604196 -5 24 C-5.99 24.33 -6.98 24.66 -8 25 C-8.99 24.34 -9.98 23.68 -11 23 C-10.97679687 23.83144531 -10.95359375 24.66289063 -10.9296875 25.51953125 C-10.90261719 27.14955078 -10.90261719 27.14955078 -10.875 28.8125 C-10.85179687 29.89144531 -10.82859375 30.97039063 -10.8046875 32.08203125 C-11 35 -11 35 -13 38 C-14.65 37.67 -16.3 37.34 -18 37 C-18 32.38 -18 27.76 -18 23 C-17.34 23 -16.68 23 -16 23 C-15.9175 22.34 -15.835 21.68 -15.75 21 C-13.62648304 12.50593217 -9.07247553 7.1336888 -2 2 C-1.34 2 -0.68 2 0 2 C0 1.34 0 0.68 0 0 Z " fill="#E1FAFD" transform="translate(44,11)"/>
<path d="M0 0 C7.73861781 2.12078739 13.89210958 7.65676809 18.5 14.1875 C21.91630191 20.59306609 22.25364841 25.86966129 22 33 C20.68 33 19.36 33 18 33 C17.91363281 32.154375 17.82726562 31.30875 17.73828125 30.4375 C16.63708211 21.54708496 14.85449702 15.23077294 8.0625 9.1875 C5.13616118 7.09725798 2.27219481 5.48027861 -1 4 C-0.67 2.68 -0.34 1.36 0 0 Z " fill="#4F65A2" transform="translate(65,31)"/>
<path d="M0 0 C4.06260183 2.60404951 7.64213492 5.53913292 11 9 C10.67 9.99 10.34 10.98 10 12 C6.15465381 10.18632198 2.79862645 7.85991406 -0.68359375 5.4375 C-5.3940455 2.51431915 -9.0170904 1.74181691 -14.5625 1.8125 C-15.67753906 1.81894531 -16.79257812 1.82539063 -17.94140625 1.83203125 C-20.47559459 1.97120124 -22.58691993 2.26250609 -25 3 C-25.33 1.68 -25.66 0.36 -26 -1 C-17.65570164 -4.60834524 -8.09067748 -3.99357024 0 0 Z " fill="#5D8FC1" transform="translate(76,27)"/>
<path d="M0 0 C4.32638295 3.74953189 5.70857581 6.98420118 6.2578125 12.66796875 C6.59938262 21.46909219 4.86512835 28.94106817 -0.25 36.1875 C-0.8275 36.785625 -1.405 37.38375 -2 38 C-2.99 37.67 -3.98 37.34 -5 37 C-4.0390932 34.54579208 -3.060546 32.12750014 -1.9296875 29.74609375 C1.8634494 21.44333853 2.35791012 13.46047247 -0.5 4.75 C-0.98149737 3.49275687 -1.47420618 2.23937115 -2 1 C-1.34 0.67 -0.68 0.34 0 0 Z " fill="#5D6AA5" transform="translate(73,45)"/>
<path d="M0 0 C1.32 0 2.64 0 4 0 C4.29132812 0.66386719 4.58265625 1.32773437 4.8828125 2.01171875 C8.76198795 10.36780422 13.25019404 14.64923411 21.7421875 18.21875 C24.84844878 19.29358089 27.72990578 19.72169411 31 20 C31 21.32 31 22.64 31 24 C21.60628512 23.7801471 14.07161534 21.16014585 7.125 14.6875 C3.28371759 10.53746203 0 5.77603891 0 0 Z " fill="#8273A7" transform="translate(13,49)"/>
<path d="M0 0 C0.495 1.98 0.495 1.98 1 4 C0.10539062 4.01417969 -0.78921875 4.02835938 -1.7109375 4.04296875 C-10.93808683 4.40693946 -18.36110947 5.48648489 -25.16796875 12.109375 C-26.86600265 14.02093413 -28.46724628 15.9546366 -30 18 C-31.32 17.67 -32.64 17.34 -34 17 C-30.47522344 9.49069342 -24.83449091 4.48516221 -17.25 1.0625 C-11.71932884 -0.78105705 -5.7477853 -0.23657043 0 0 Z " fill="#55A6D0" transform="translate(69,16)"/>
<path d="M0 0 C1.32 0 2.64 0 4 0 C2.97590897 8.45757935 0.50971319 15.11757774 -6.078125 20.7890625 C-11.19153448 24.41851049 -17.5570936 28 -24 28 C-24 26.68 -24 25.36 -24 24 C-23.29875 23.79246094 -22.5975 23.58492187 -21.875 23.37109375 C-14.21667323 20.88421862 -7.83021178 17.87059702 -3.65625 10.6875 C-2.04626024 7.19152224 -0.87132443 3.74754097 0 0 Z " fill="#6567A3" transform="translate(68,60)"/>
<path d="M0 0 C0.99 0.33 1.98 0.66 3 1 C2.84273437 1.68707031 2.68546875 2.37414062 2.5234375 3.08203125 C0.92622626 11.98588795 1.07584065 20.07475566 5.6171875 28.015625 C7.0350068 30.17423697 7.0350068 30.17423697 9.375 32.375 C9.91125 32.91125 10.4475 33.4475 11 34 C10.6015625 36.1015625 10.6015625 36.1015625 10 38 C3.46139107 33.19497038 -1.47842135 27.16684052 -3 19 C-3.57109943 11.92715322 -2.92693873 6.46365637 0 0 Z " fill="#8F76A7" transform="translate(22,25)"/>
<path d="M0 0 C0.66 1.32 1.32 2.64 2 4 C1.40832031 4.38929687 0.81664063 4.77859375 0.20703125 5.1796875 C-5.93641689 9.52920869 -9.8325864 13.69356047 -12 21 C-12.64643487 25.67085647 -12.92530279 30.28728513 -13 35 C-14.32 35 -15.64 35 -17 35 C-17.63741295 23.70362598 -16.51625375 15.81255875 -9.0625 7.0625 C-6.30345024 4.04016119 -3.57899132 1.98556214 0 0 Z " fill="#5AC2E4" transform="translate(44,12)"/>
<path d="M0 0 C0.66 0 1.32 0 2 0 C2.495 1.485 2.495 1.485 3 3 C-3.03833613 8.87943255 -9.65979437 11.07443666 -18.0625 11.375 C-24.31612482 11.17772477 -29.80536389 9.46309074 -35 6 C-34.67 5.01 -34.34 4.02 -34 3 C-32.205625 3.7425 -32.205625 3.7425 -30.375 4.5 C-21.99952485 7.24346273 -13.17160899 7.50880029 -5.1875 3.5625 C-2.41881352 2.01063838 -2.41881352 2.01063838 0 0 Z " fill="#736CA5" transform="translate(57,69)"/>
<path d="M0 0 C6.40083293 2.27650871 11.23670178 5.20543287 16 10 C16.66 10 17.32 10 18 10 C16.44499019 6.18315774 13.96404505 3.80804268 11 1 C15 1 15 1 17.75 3.125 C20.3448928 6.44069635 20.47661072 7.90114782 20 12 C18.824375 12.185625 18.824375 12.185625 17.625 12.375 C14.85942178 12.79117993 14.85942178 12.79117993 13 15 C12.61070313 14.55269531 12.22140625 14.10539062 11.8203125 13.64453125 C7.1449916 8.59216834 2.2800664 5.74200082 -4 3 C-4 2.34 -4 1.68 -4 1 C-9.94 1.495 -9.94 1.495 -16 2 C-11.04624145 -1.3025057 -5.77638085 -0.73310742 0 0 Z " fill="#E5F1FA" transform="translate(68,28)"/>
<path d="M0 0 C2.64 0 5.28 0 8 0 C10.125 4.625 10.125 4.625 9 8 C8.34 8 7.68 8 7 8 C7 8.66 7 9.32 7 10 C6.13117188 9.98839844 5.26234375 9.97679687 4.3671875 9.96484375 C3.21476562 9.95582031 2.06234375 9.94679688 0.875 9.9375 C-0.83042969 9.92009766 -0.83042969 9.92009766 -2.5703125 9.90234375 C-5.8129156 9.994673 -8.81932612 10.38610094 -12 11 C-11.67 12.32 -11.34 13.64 -11 15 C-11.99 15 -12.98 15 -14 15 C-14 14.34 -14 13.68 -14 13 C-14.928125 13.845625 -15.85625 14.69125 -16.8125 15.5625 C-18.39453125 17.00390625 -18.39453125 17.00390625 -20 18 C-20.99 17.67 -21.98 17.34 -23 17 C-16.95239063 10.21085815 -11.67507482 5.36108641 -2.31640625 4.765625 C1.13328351 4.75172897 4.55525024 4.82359745 8 5 C7.67 4.01 7.34 3.02 7 2 C4.69 1.67 2.38 1.34 0 1 C0 0.67 0 0.34 0 0 Z " fill="#EBFAFD" transform="translate(62,15)"/>
<path d="M0 0 C3.15143994 2.57845086 4.07118488 5.07039756 5 9 C5.15481878 12.3410891 5.11887697 15.65823621 5 19 C3.68 19 2.36 19 1 19 C0.86722656 18.10796875 0.73445313 17.2159375 0.59765625 16.296875 C0.42105469 15.12640625 0.24445313 13.9559375 0.0625 12.75 C-0.11152344 11.58984375 -0.28554687 10.4296875 -0.46484375 9.234375 C-0.90776579 6.12878308 -0.90776579 6.12878308 -1.69140625 3.703125 C-1.79324219 3.14109375 -1.89507812 2.5790625 -2 2 C-1.34 1.34 -0.68 0.68 0 0 Z " fill="#586BA2" transform="translate(82,45)"/>
<path d="M0 0 C3.54720774 3.07424671 5.01442622 5.40065568 6 10 C6.153692 14.00623807 6.11670318 17.99319094 6 22 C5.67 22 5.34 22 5 22 C4.67 18.7 4.34 15.4 4 12 C3.34 12 2.68 12 2 12 C1.32880451 10.5437455 0.66318193 9.08492133 0 7.625 C-0.37125 6.81289063 -0.7425 6.00078125 -1.125 5.1640625 C-2 3 -2 3 -2 1 C-1.34 0.67 -0.68 0.34 0 0 Z " fill="#6370A8" transform="translate(73,45)"/>
<path d="M0 0 C1.32 0 2.64 0 4 0 C3.74379316 1.6065676 3.46944129 3.2102483 3.1875 4.8125 C3.03667969 5.70582031 2.88585937 6.59914063 2.73046875 7.51953125 C1.94604607 10.18321256 1.11372201 11.25690322 -1 13 C-1.99 12.34 -2.98 11.68 -4 11 C-2.68 7.37 -1.36 3.74 0 0 Z " fill="#6B6FA8" transform="translate(68,60)"/>
<path d="M0 0 C0 0.33 0 0.66 0 1 C-4.455 1.495 -4.455 1.495 -9 2 C-6.03 2.495 -6.03 2.495 -3 3 C-3 3.33 -3 3.66 -3 4 C-7.29 4.66 -11.58 5.32 -16 6 C-16.33 4.68 -16.66 3.36 -17 2 C-11.35600642 -0.44064587 -6.02248522 -0.19289099 0 0 Z " fill="#6593C1" transform="translate(67,24)"/>
<path d="M0 0 C0.08075665 2.29109597 0.13907731 4.58299267 0.1875 6.875 C0.22230469 8.15117188 0.25710937 9.42734375 0.29296875 10.7421875 C0.19628906 11.81726563 0.09960938 12.89234375 0 14 C-0.99 14.66 -1.98 15.32 -3 16 C-3 11.05 -3 6.1 -3 1 C-1 0 -1 0 0 0 Z " fill="#4D609E" transform="translate(78,56)"/>
<path d="M0 0 C1.17539996 0.92652701 2.34010577 1.86663387 3.5 2.8125 C4.1496875 3.33457031 4.799375 3.85664062 5.46875 4.39453125 C7 6 7 6 7 9 C3.74333728 8.43850643 2.04376677 7.62770014 0 5 C-0.75 2.875 -0.75 2.875 -1 1 C-0.67 0.67 -0.34 0.34 0 0 Z " fill="#7A68A3" transform="translate(20,58)"/>
<path d="M0 0 C3.36591866 1.44253657 5.51047079 3.33264727 8 6 C7.67 6.99 7.34 7.98 7 9 C3.64564078 7.61198929 1.88709697 6.11371 0 3 C0 2.01 0 1.02 0 0 Z " fill="#5888B6" transform="translate(79,30)"/>
<path d="M0 0 C1.98 1.65 3.96 3.3 6 5 C5.67 6.32 5.34 7.64 5 9 C4.34 9 3.68 9 3 9 C0.8125 6.75 0.8125 6.75 -1 4 C-0.75 1.6875 -0.75 1.6875 0 0 Z " fill="#45609F" transform="translate(76,38)"/>
<path d="M0 0 C4.29 0 8.58 0 13 0 C13.33 1.32 13.66 2.64 14 4 C11.36 4 8.72 4 6 4 C6.99 3.67 7.98 3.34 9 3 C9 2.34 9 1.68 9 1 C6.03 1 3.06 1 0 1 C0 0.67 0 0.34 0 0 Z " fill="#61ACD4" transform="translate(56,16)"/>
<path d="M0 0 C0.33 0 0.66 0 1 0 C1.05423638 1.91635217 1.09289963 3.83314925 1.125 5.75 C1.14820312 6.81734375 1.17140625 7.8846875 1.1953125 8.984375 C1.00487687 11.92470106 0.52670104 13.52361878 -1 16 C-2.454314 13.69020717 -3.0474465 12.43888012 -2.75 9.6875 C-2.5025 8.800625 -2.255 7.91375 -2 7 C-1.649375 5.741875 -1.29875 4.48375 -0.9375 3.1875 C-0.4734375 1.6096875 -0.4734375 1.6096875 0 0 Z " fill="#E9EFFA" transform="translate(74,55)"/>
<path d="M0 0 C1.49080078 0.02707031 1.49080078 0.02707031 3.01171875 0.0546875 C3.77097656 0.07789062 4.53023437 0.10109375 5.3125 0.125 C4.9825 1.115 4.6525 2.105 4.3125 3.125 C0.0225 2.795 -4.2675 2.465 -8.6875 2.125 C-5.26655758 -0.15562828 -4.00562778 -0.09425007 0 0 Z " fill="#4585BE" transform="translate(63.6875,24.875)"/>
<path d="M0 0 C2.0625 0.75 2.0625 0.75 4 2 C4.33 2.99 4.66 3.98 5 5 C3.5625 7.1875 3.5625 7.1875 2 9 C0.66666667 6.33333333 -0.66666667 3.66666667 -2 1 C-1.34 0.67 -0.68 0.34 0 0 Z " fill="#E7EFFA" transform="translate(75,43)"/>
<path d="M0 0 C3.68754757 0.49831724 5.60490662 1.10067643 8 4 C6.02 4.99 6.02 4.99 4 6 C1 4 1 4 0.3125 1.875 C0.209375 1.25625 0.10625 0.6375 0 0 Z " fill="#EDF7FD" transform="translate(70,30)"/>
<path d="M0 0 C1.32 1.32 2.64 2.64 4 4 C3.67 4.66 3.34 5.32 3 6 C0.525 5.01 0.525 5.01 -2 4 C-1.34 2.68 -0.68 1.36 0 0 Z " fill="#EDE5F4" transform="translate(27,59)"/>
<path d="M0 0 C0.99 0.66 1.98 1.32 3 2 C3 2.99 3 3.98 3 5 C2.01 5.33 1.02 5.66 0 6 C-0.66 4.35 -1.32 2.7 -2 1 C-1.34 0.67 -0.68 0.34 0 0 Z " fill="#56649A" transform="translate(73,45)"/>
</svg>
