<svg width="32" height="32" fill="#1DA1F2" viewBox="0 0 24 24" xmlns="http://www.w3.org/2000/svg">
  <path d="M0 0h24v24H0z" fill="none"/>
  <path d="M22.46 6.06c-.81.36-1.68.6-2.6.71.94-.56 1.66-1.44 2-2.5-.88.52-1.86.9-2.9 1.1-.83-.9-2-1.46-3.3-1.46-2.5 0-4.52 2.05-4.52 4.56 0 .36.04.71.11 1.05-3.75-.2-7.07-2-9.3-4.75-.39.67-.61 1.45-.61 2.28 0 1.58.8 2.98 2.02 3.8-.74 0-1.44-.2-2.05-.52v.06c0 2.2 1.56 4.04 3.63 4.45-.38.1-.78.16-1.2.16-.3 0-.6-.03-.89-.08.6 1.85 2.35 3.2 4.42 3.24-1.62 1.3-3.66 2.08-5.9 2.08-.38 0-.76-.02-1.14-.07 2.1 1.35 4.6 2.14 7.3 2.14 8.76 0 13.56-7.3 13.56-13.64 0-.21 0-.42-.02-.63.93-.68 1.74-1.53 2.38-2.5-.86.38-1.8.62-2.78.73z"/>
</svg>
